<svg width="675" height="339" viewBox="0 0 675 339" fill="none" xmlns="http://www.w3.org/2000/svg">
<g clip-path="url(#clip0_348_1419)">
<path d="M337.5 339C523.896 339 675 330.08 675 319.076C675 308.072 523.896 299.152 337.5 299.152C151.104 299.152 0 308.072 0 319.076C0 330.08 151.104 339 337.5 339Z" fill="#B6C3CC"/>
<path d="M225.63 60.7902V69.0798H191.633V60.7902C191.633 60.6448 191.633 60.4993 191.633 60.4993C191.778 55.5547 195.846 51.6281 200.786 51.6281H216.331C219.092 51.6281 221.707 52.9369 223.451 54.973C224.758 56.4273 225.63 58.4633 225.63 60.7902Z" fill="#697172"/>
<path d="M218.946 67.9163H198.17V296.243H218.946V67.9163Z" fill="#697172"/>
<path d="M240.449 296.243H176.668V313.404H240.449V296.243Z" fill="#697172"/>
<path d="M240.594 296.243V313.404H208.486C207.614 307.587 202.529 303.079 196.282 303.079H176.668V296.243H240.594Z" fill="#606060"/>
<path d="M225.63 60.7902V69.0798H219.092V296.243H208.631C208.486 292.462 207.324 289.117 205.435 286.209C203.692 283.736 201.367 281.555 198.752 280.1C198.607 279.955 198.461 279.955 198.316 279.81V260.467H208.631V196.332C208.631 192.26 207.469 188.624 205.29 185.57C203.546 182.952 201.076 180.771 198.171 179.317V160.265H208.486V78.9691C208.486 75.3333 207.469 71.9884 205.726 69.2252C205.435 68.7889 205.29 68.4981 204.999 68.0618C204.418 67.3346 203.837 66.462 203.11 65.8803C201.512 64.2806 199.478 62.8263 197.154 61.9537C195.41 61.2265 193.522 60.7902 191.633 60.6448C191.778 55.7001 195.846 51.7735 200.786 51.7735H216.331C219.092 51.7735 221.707 53.0824 223.451 55.1184C224.758 56.4273 225.63 58.4633 225.63 60.7902Z" fill="#606060"/>
<path d="M208.922 52.6461C223.445 52.6461 235.219 40.8609 235.219 26.323C235.219 11.7852 223.445 0 208.922 0C194.398 0 182.625 11.7852 182.625 26.323C182.625 40.8609 194.398 52.6461 208.922 52.6461Z" fill="#D0493A"/>
<path d="M228.39 37.2304C226.646 40.2844 224.322 42.9022 221.416 44.7928" stroke="#F5DA34" stroke-miterlimit="10" stroke-linecap="round"/>
<path d="M214.588 47.9923C212.99 48.4286 211.392 48.7194 209.648 48.7194" stroke="#F5DA34" stroke-miterlimit="10" stroke-linecap="round"/>
<path d="M190.615 13.5251C191.196 12.6525 191.923 11.7799 192.649 11.0528" stroke="#F5DA34" stroke-miterlimit="10" stroke-linecap="round"/>
<path d="M196.863 7.41698C200.35 5.23552 204.418 3.92664 208.922 3.92664C212.99 3.92664 216.767 4.94465 219.964 6.83526" stroke="#F5DA34" stroke-miterlimit="10" stroke-linecap="round"/>
<path opacity="0.4" d="M220.454 39.9348C227.985 33.5488 228.918 22.2613 222.538 14.7234C216.158 7.18549 204.882 6.25167 197.352 12.6376C189.821 19.0236 188.888 30.3111 195.268 37.849C201.648 45.3869 212.924 46.3207 220.454 39.9348Z" fill="#F5DA34"/>
<path d="M208.922 38.103C215.422 38.103 220.691 32.8289 220.691 26.323C220.691 19.8172 215.422 14.5431 208.922 14.5431C202.423 14.5431 197.154 19.8172 197.154 26.323C197.154 32.8289 202.423 38.103 208.922 38.103Z" fill="#F5DA34"/>
<path d="M202.094 195.023C202.094 195.023 202.094 201.568 202.094 211.166" stroke="#919A9B" stroke-miterlimit="10" stroke-linecap="round" stroke-linejoin="round"/>
<path d="M202.094 287.372C202.094 291.299 202.094 293.625 202.094 293.625" stroke="#919A9B" stroke-miterlimit="10" stroke-linecap="round" stroke-linejoin="round"/>
<path d="M483.222 60.7902V69.0798H449.225V60.7902C449.225 60.6448 449.225 60.4993 449.225 60.4993C449.37 55.5547 453.438 51.6281 458.378 51.6281H473.923C476.684 51.6281 479.299 52.9369 481.042 54.973C482.495 56.4273 483.222 58.4633 483.222 60.7902Z" fill="#697172"/>
<path d="M476.684 67.9163H455.908V296.243H476.684V67.9163Z" fill="#697172"/>
<path d="M498.187 296.243H434.406V313.404H498.187V296.243Z" fill="#697172"/>
<path d="M498.187 296.243V313.404H466.079C465.207 307.587 460.122 303.079 453.875 303.079H434.406V296.243H498.187Z" fill="#606060"/>
<path d="M483.222 60.7902V69.0798H476.684V296.243H466.223C466.078 292.462 464.916 289.117 463.027 286.209C461.283 283.736 458.959 281.555 456.344 280.1C456.198 279.955 456.053 279.955 455.908 279.81V260.467H466.223V196.332C466.223 192.26 465.061 188.624 462.882 185.57C461.138 182.952 458.668 180.771 455.762 179.317V160.265H466.078V78.9691C466.078 75.3333 465.061 71.9884 463.317 69.2252C463.027 68.7889 462.881 68.4981 462.591 68.0618C462.01 67.3346 461.429 66.462 460.702 65.8803C459.104 64.2806 457.07 62.8263 454.745 61.9537C453.002 61.2265 451.113 60.7902 449.225 60.6448C449.37 55.7001 453.438 51.7735 458.378 51.7735H473.923C476.684 51.7735 479.299 53.0824 481.042 55.1184C482.495 56.4273 483.222 58.4633 483.222 60.7902Z" fill="#606060"/>
<path d="M466.514 52.6461C481.037 52.6461 492.81 40.8609 492.81 26.323C492.81 11.7852 481.037 0 466.514 0C451.99 0 440.217 11.7852 440.217 26.323C440.217 40.8609 451.99 52.6461 466.514 52.6461Z" fill="#D0493A"/>
<path d="M485.982 37.2304C484.238 40.2844 481.914 42.9022 479.008 44.7928" stroke="#F5DA34" stroke-miterlimit="10" stroke-linecap="round"/>
<path d="M472.324 47.9923C470.726 48.4286 469.128 48.7194 467.385 48.7194" stroke="#F5DA34" stroke-miterlimit="10" stroke-linecap="round"/>
<path d="M448.354 13.5251C448.935 12.6525 449.661 11.7799 450.388 11.0528" stroke="#F5DA34" stroke-miterlimit="10" stroke-linecap="round"/>
<path d="M454.6 7.41698C458.086 5.23552 462.155 3.92664 466.658 3.92664C470.726 3.92664 474.504 4.94465 477.7 6.83526" stroke="#F5DA34" stroke-miterlimit="10" stroke-linecap="round"/>
<path opacity="0.4" d="M483.822 30.8124C486.28 21.2443 480.523 11.4937 470.964 9.03375C461.406 6.57381 451.665 12.3361 449.208 21.9042C446.75 31.4723 452.507 41.2229 462.065 43.6829C471.624 46.1428 481.365 40.3805 483.822 30.8124Z" fill="#F5DA34"/>
<path d="M466.514 38.103C473.014 38.103 478.283 32.8289 478.283 26.323C478.283 19.8172 473.014 14.5431 466.514 14.5431C460.015 14.5431 454.746 19.8172 454.746 26.323C454.746 32.8289 460.015 38.103 466.514 38.103Z" fill="#F5DA34"/>
<path d="M459.832 195.023C459.832 195.023 459.832 201.568 459.832 211.166" stroke="#919A9B" stroke-miterlimit="10" stroke-linecap="round" stroke-linejoin="round"/>
<path d="M459.832 287.372C459.832 291.299 459.832 293.625 459.832 293.625" stroke="#919A9B" stroke-miterlimit="10" stroke-linecap="round" stroke-linejoin="round"/>
<path d="M510.972 219.31H163.883V269.775H510.972V219.31Z" fill="#FEFCF3"/>
<path d="M202.238 219.31L163.883 257.704V237.053L181.608 219.31H202.238Z" fill="#D0493A"/>
<path d="M242.482 219.31L192.213 269.775H171.582L221.851 219.31H242.482Z" fill="#D0493A"/>
<path d="M282.727 219.31L232.458 269.775H211.973L262.242 219.31H282.727Z" fill="#D0493A"/>
<path d="M323.116 219.31L272.702 269.775H252.217L302.486 219.31H323.116Z" fill="#D0493A"/>
<path d="M363.361 219.31L313.092 269.775H292.461L342.73 219.31H363.361Z" fill="#D0493A"/>
<path d="M403.605 219.31L353.336 269.775H332.705L383.119 219.31H403.605Z" fill="#D0493A"/>
<path d="M443.995 219.31L393.581 269.775H373.096L423.365 219.31H443.995Z" fill="#D0493A"/>
<path d="M484.24 219.31L433.971 269.775H413.34L463.609 219.31H484.24Z" fill="#D0493A"/>
<path d="M510.972 219.31V232.835L474.215 269.775H453.584L503.998 219.31H510.972Z" fill="#D0493A"/>
<path d="M510.971 252.614V269.775H493.973L510.971 252.614Z" fill="#D0493A"/>
<path opacity="0.3" d="M510.972 219.31V269.775H409.852C389.367 247.669 360.019 233.999 327.62 233.999H163.883V219.31H510.972Z" fill="#606060"/>
<path d="M510.972 67.9163H163.883V168.846H510.972V67.9163Z" fill="#FEFCF3"/>
<path d="M224.612 67.9163L163.883 128.852V96.4208L192.359 67.9163H224.612Z" fill="#D0493A"/>
<path d="M289.41 67.9163L188.727 168.846H163.883V161.283L257.011 67.9163H289.41Z" fill="#D0493A"/>
<path d="M354.062 67.9163L253.524 168.846H221.125L321.663 67.9163H354.062Z" fill="#D0493A"/>
<path d="M418.714 67.9163L318.176 168.846H285.777L386.461 67.9163H418.714Z" fill="#D0493A"/>
<path d="M483.513 67.9163L382.83 168.846H350.576L451.114 67.9163H483.513Z" fill="#D0493A"/>
<path d="M510.972 72.7156V105.147L447.627 168.846H415.229L510.972 72.7156Z" fill="#D0493A"/>
<path d="M510.972 141.068V168.846H483.223L510.972 141.068Z" fill="#D0493A"/>
<path opacity="0.3" d="M348.977 152.412H186.838C181.317 152.412 176.668 147.903 176.668 142.232C176.668 136.705 181.172 132.051 186.838 132.051H348.977C351.738 132.051 354.353 133.215 356.097 134.96C357.985 136.851 359.002 139.323 359.002 142.086C359.002 147.903 354.498 152.412 348.977 152.412Z" fill="#FEFCF3"/>
<path opacity="0.3" d="M308.733 262.649H186.838C181.317 262.649 176.668 258.14 176.668 252.468C176.668 246.942 181.172 242.288 186.838 242.288H308.733C311.058 242.288 313.092 243.015 314.835 244.324C317.305 246.215 318.903 249.124 318.903 252.468C318.903 258.14 314.254 262.649 308.733 262.649Z" fill="#FEFCF3"/>
<path opacity="0.3" d="M163.883 67.9163V98.3114H327.475C345.345 98.3114 362.199 102.529 377.163 109.801L318.322 168.7H407.528L430.338 145.867C435.278 152.994 439.636 160.556 442.832 168.7H510.826V67.9163H163.883Z" fill="#606060"/>
<path opacity="0.3" d="M437.893 123.035C437.602 124.78 436.731 126.38 435.423 127.689L394.452 168.7H337.5V67.9163H388.495L435.423 114.891C437.602 117.072 438.474 120.272 437.893 123.035Z" fill="#606060"/>
<path d="M427.868 118.526C427.868 120.272 427.142 122.017 425.834 123.326L336.483 212.766C333.868 215.384 329.51 215.384 326.894 212.766L237.543 123.326C234.928 120.708 234.928 116.345 237.543 113.727L306.119 45.0837L326.894 24.287C329.51 21.6692 333.868 21.6692 336.483 24.287L425.834 113.727C427.142 115.036 427.868 116.781 427.868 118.526Z" fill="#F5DA34"/>
<path d="M427.869 118.526C427.869 120.272 427.143 122.017 425.835 123.326L336.484 212.766C333.869 215.384 329.51 215.384 326.895 212.766L309.897 195.75L347.09 158.52C367.139 138.45 367.139 106.019 347.09 86.0952L306.119 45.0837L326.895 24.287C329.51 21.6692 333.869 21.6692 336.484 24.287L425.835 113.727C427.143 115.036 427.869 116.781 427.869 118.526Z" fill="#E5C62C"/>
<path d="M306.699 124.78H300.016V133.36H293.187V124.78H272.557V119.981L291.153 95.6937H298.563L281.129 118.963H293.478V111.4H300.016V118.963H306.699V124.78Z" fill="#414A51"/>
<path d="M322.681 131.615C320.356 130.161 318.467 127.834 317.014 124.925C315.707 122.017 314.98 118.526 314.98 114.454C314.98 110.382 315.707 106.892 317.014 103.983C318.322 101.075 320.211 98.8932 322.681 97.2934C325.005 95.8391 327.766 94.9666 330.817 94.9666C333.868 94.9666 336.483 95.6937 338.953 97.2934C341.277 98.7478 343.166 101.075 344.619 103.983C345.926 106.892 346.653 110.382 346.653 114.454C346.653 118.526 345.926 122.017 344.619 124.925C343.311 127.834 341.423 130.015 338.953 131.615C336.628 133.069 333.868 133.942 330.817 133.942C327.766 133.942 325.005 133.069 322.681 131.615ZM337.064 124.489C338.662 122.308 339.389 118.963 339.389 114.454C339.389 109.946 338.662 106.746 337.064 104.42C335.466 102.238 333.432 101.075 330.671 101.075C328.056 101.075 325.877 102.238 324.279 104.42C322.681 106.601 321.954 109.946 321.954 114.454C321.954 118.963 322.681 122.162 324.279 124.489C325.877 126.671 327.911 127.834 330.671 127.834C333.432 127.834 335.611 126.671 337.064 124.489Z" fill="#414A51"/>
<path d="M390.238 124.78H383.555V133.36H376.726V124.78H356.096V119.981L374.692 95.6937H382.102L364.668 118.963H377.017V111.4H383.555V118.963H390.238V124.78Z" fill="#414A51"/>
<path d="M255.414 121.435C253.961 121.435 252.799 120.272 252.799 118.817C252.799 117.363 253.961 116.199 255.414 116.199C256.867 116.199 258.029 117.363 258.029 118.817C257.884 120.272 256.722 121.435 255.414 121.435Z" fill="#494947"/>
<path d="M255.85 121.435C254.397 121.435 253.234 120.272 253.234 118.817C253.234 117.363 254.397 116.199 255.85 116.199C257.302 116.199 258.465 117.363 258.465 118.817C258.465 120.272 257.302 121.435 255.85 121.435Z" fill="#606060"/>
<path d="M408.109 116.199C409.562 116.199 410.724 117.363 410.724 118.817C410.724 120.272 409.562 121.435 408.109 121.435C406.656 121.435 405.494 120.272 405.494 118.817C405.639 117.363 406.656 116.199 408.109 116.199Z" fill="#494947"/>
<path d="M407.674 121.435C409.118 121.435 410.289 120.263 410.289 118.817C410.289 117.371 409.118 116.199 407.674 116.199C406.229 116.199 405.059 117.371 405.059 118.817C405.059 120.263 406.229 121.435 407.674 121.435Z" fill="#606060"/>
<path d="M331.689 205.931C329.801 205.931 327.912 205.203 326.604 203.749L246.406 123.616C243.646 120.853 243.646 116.199 246.406 113.291L326.459 33.1583C329.219 30.3951 334.014 30.3951 336.774 33.1583L416.972 113.291C418.28 114.6 419.152 116.49 419.152 118.381C419.152 120.272 418.425 122.162 416.972 123.471L336.92 203.604C335.467 205.203 333.723 205.931 331.689 205.931ZM331.689 33.3037C330.382 33.3037 329.074 33.8855 328.202 34.758L248.15 114.891C246.261 116.781 246.261 119.981 248.15 121.871L328.202 202.004C330.091 203.894 333.287 203.894 335.176 202.004L415.229 121.871C416.101 120.999 416.682 119.69 416.682 118.381C416.682 117.072 416.101 115.763 415.229 114.891L335.176 34.758C334.304 33.8855 332.997 33.3037 331.689 33.3037Z" fill="white"/>
<path d="M617.029 296.243H534.361L540.609 272.247L545.839 252.032L550.198 235.017L555.428 214.802L568.068 165.501H583.323L595.963 214.802L601.193 235.017L605.552 252.032L610.782 272.247L617.029 296.243Z" fill="#D0493A"/>
<path d="M601.193 235.017H550.197L555.428 214.802H595.962L601.193 235.017Z" fill="#FEFCF3"/>
<path d="M610.783 272.247H540.609L545.84 252.032H605.552L610.783 272.247Z" fill="#FEFCF3"/>
<path d="M634.9 296.243H516.492V313.404H634.9V296.243Z" fill="#C44339"/>
<path opacity="0.3" d="M634.9 296.243V313.404H581.145C580.273 307.587 575.188 303.079 568.941 303.079H516.492V296.243H634.9Z" fill="#606060"/>
<path opacity="0.3" d="M578.093 296.243C595.818 215.965 568.068 165.355 568.068 165.355H583.178L595.963 214.656L601.194 235.017L605.552 251.887L610.783 272.247L617.03 296.243H578.093Z" fill="#606060"/>
<path opacity="0.3" d="M570.104 243.015C566.036 264.248 559.498 280.828 555.43 280.1C551.507 279.373 551.652 261.485 555.72 240.252C559.788 219.019 566.326 202.44 570.394 203.167C574.317 203.894 574.172 221.637 570.104 243.015Z" fill="#FEFCF3"/>
<path d="M140.636 296.243H57.8232L64.0705 272.247L69.3009 252.032L73.6594 235.017L78.8897 214.802L91.6749 165.501H106.785L119.57 214.802L124.8 235.017L129.159 252.032L134.389 272.247L140.636 296.243Z" fill="#D0493A"/>
<path d="M124.8 235.017H73.6592L78.8895 214.802H119.57L124.8 235.017Z" fill="#FEFCF3"/>
<path d="M134.389 272.247H64.0703L69.3006 252.032H129.159L134.389 272.247Z" fill="#FEFCF3"/>
<path d="M158.507 296.243H40.0986V313.404H158.507V296.243Z" fill="#C44339"/>
<path opacity="0.3" d="M158.362 296.243V313.404H104.606C103.734 307.587 98.649 303.079 92.4017 303.079H40.0986V296.243H158.362Z" fill="#606060"/>
<path opacity="0.3" d="M101.7 296.243C119.424 215.965 91.6748 165.355 91.6748 165.355H106.785L119.57 214.656L124.8 235.017L129.159 251.887L134.389 272.247L140.636 296.243H101.7Z" fill="#606060"/>
<path opacity="0.3" d="M93.5635 243.015C89.4955 264.248 82.9576 280.828 78.8896 280.1C74.9669 279.373 75.1122 261.485 79.1802 240.252C83.2482 219.019 89.7861 202.44 93.8541 203.167C97.9221 203.894 97.7768 221.637 93.5635 243.015Z" fill="#FEFCF3"/>
</g>
<defs>
<clipPath id="clip0_348_1419">
<rect width="675" height="339" fill="white"/>
</clipPath>
</defs>
</svg>
