<svg width="294" height="100" viewBox="0 0 294 100" fill="none" xmlns="http://www.w3.org/2000/svg">
<path d="M284.865 57.0395L293.091 68.9462V45.1328L284.865 57.0395Z" fill="#006534"/>
<path d="M293.091 81.2549V76.1061L279.919 57.0393L293.091 37.9726V32.8237L276.417 57.0393L293.091 81.2549Z" fill="#006534"/>
<path d="M293.091 24.7788V0.724121H276.528L293.091 24.7788Z" fill="#006534"/>
<path d="M276.528 76.0259L262.966 95.6558L249.405 76.0259L232.786 100.081H259.909H265.968H293.091L276.528 76.0259ZM238.844 96.3799L249.405 81.0943L259.965 96.3799H238.844ZM265.968 96.3799L276.528 81.0943L287.089 96.3799H265.968Z" fill="#006534"/>
<path d="M261.188 57.0394L251.294 71.3596L262.966 88.2542L274.638 71.3596L264.745 57.0394L283.531 29.7667L262.966 0L242.401 29.7667L261.188 57.0394ZM279.974 29.7667L262.911 54.465L245.903 29.7667L262.966 5.06838L279.974 29.7667Z" fill="#006534"/>
<path d="M268.802 21.3999H257.13V38.2945H268.802V21.3999Z" fill="#006534"/>
<path d="M232.782 45.0797L224.528 57.0259L232.782 68.9721L241.035 57.0259L232.782 45.0797Z" fill="#006534"/>
<path d="M216.056 57.0393L232.786 81.2549L249.516 57.0393L232.786 32.8237L216.056 57.0393ZM232.786 76.1061L219.613 57.0393L232.786 37.9726L245.959 57.0393L232.786 76.1061Z" fill="#006534"/>
<path d="M249.349 0.724121H216.167L232.786 24.7788L249.349 0.724121Z" fill="#006534"/>
<path d="M200.827 57.0394L190.933 71.3596L202.605 88.2542L214.277 71.3596L204.384 57.0394L223.17 29.7667L202.605 0L182.04 29.7667L200.827 57.0394ZM219.669 29.7667L202.605 54.465L185.542 29.7667L202.605 5.06838L219.669 29.7667Z" fill="#006534"/>
<path d="M208.441 21.3999H196.769V38.2945H208.441V21.3999Z" fill="#006534"/>
<path d="M172.428 45.1046L164.175 57.0508L172.428 68.997L180.682 57.0508L172.428 45.1046Z" fill="#006534"/>
<path d="M155.75 57.0393L172.48 81.2549L189.21 57.0393L172.48 32.8237L155.75 57.0393ZM172.425 76.1061L159.252 57.0393L172.425 37.9726L185.597 57.0393L172.425 76.1061Z" fill="#006534"/>
<path d="M189.043 0.724121H155.862L172.425 24.7788L189.043 0.724121Z" fill="#006534"/>
<path d="M202.605 95.6558L189.044 76.0259L172.425 100.081H199.548H205.607H232.73L216.112 76.0259L202.605 95.6558ZM178.483 96.3799L189.044 81.0943L199.604 96.3799H178.483ZM205.607 96.3799L216.167 81.0943L226.728 96.3799H205.607Z" fill="#006534"/>
<path d="M140.521 57.0394L130.628 71.3596L142.3 88.2542L153.972 71.3596L144.078 57.0394L162.865 29.7667L142.3 0L121.735 29.7667L140.521 57.0394ZM159.308 29.7667L142.244 54.465L125.236 29.7667L142.3 5.06838L159.308 29.7667Z" fill="#006534"/>
<path d="M148.136 21.3999H136.464V38.2945H148.136V21.3999Z" fill="#006534"/>
<path d="M112.114 45.0724L103.861 57.0186L112.114 68.9647L120.367 57.0186L112.114 45.0724Z" fill="#006534"/>
<path d="M95.3892 57.0393L112.119 81.2549L128.849 57.0393L112.119 32.8237L95.3892 57.0393ZM112.119 76.1061L98.9464 57.0393L112.119 37.9726L125.292 57.0393L112.119 76.1061Z" fill="#006534"/>
<path d="M128.682 0.724121H95.5004L112.119 24.7788L128.682 0.724121Z" fill="#006534"/>
<path d="M142.244 95.6558L128.682 76.0259L112.064 100.081H139.187H145.246H172.369L155.75 76.0259L142.244 95.6558ZM118.122 96.3799L128.682 81.0943L139.243 96.3799H118.122ZM145.301 96.3799L155.862 81.0943L166.422 96.3799H145.301Z" fill="#006534"/>
<path d="M80.16 57.0394L70.2666 71.3596L81.9386 88.2542L93.6106 71.3596L83.7172 57.0394L102.504 29.7667L81.9386 0L61.3736 29.7667L80.16 57.0394ZM99.002 29.7667L81.9386 54.465L64.8752 29.7667L81.9386 5.06838L99.002 29.7667Z" fill="#006534"/>
<path d="M87.7746 21.3999H76.1026V38.2945H87.7746V21.3999Z" fill="#006534"/>
<path d="M51.7609 45.0983L43.5076 57.0444L51.7609 68.9906L60.0142 57.0444L51.7609 45.0983Z" fill="#006534"/>
<path d="M35.0281 57.0393L51.758 81.2549L68.488 57.0393L51.758 32.8237L35.0281 57.0393ZM51.758 76.1061L38.5853 57.0393L51.758 37.9726L64.9308 57.0393L51.758 76.1061Z" fill="#006534"/>
<path d="M68.3768 0.724121H35.1949L51.758 24.7788L68.3768 0.724121Z" fill="#006534"/>
<path d="M81.9386 95.6558L68.3768 76.0259L51.758 100.081H78.8816H84.94H112.064L95.4448 76.0259L81.9386 95.6558ZM57.8164 96.3799L68.3768 81.0943L78.9372 96.3799H57.8164ZM84.94 96.3799L95.5004 81.0943L106.061 96.3799H84.94Z" fill="#006534"/>
<path d="M19.7989 57.0394L9.90543 71.3596L21.5775 88.2542L33.2495 71.3596L23.3561 57.0394L42.1981 29.7667L21.633 0L1.06802 29.7667L19.7989 57.0394ZM38.6409 29.7667L21.5775 54.465L4.56963 29.7667L21.633 5.06838L38.6409 29.7667Z" fill="#006534"/>
<path d="M27.4135 21.3999H15.7415V38.2945H27.4135V21.3999Z" fill="#006534"/>
<path d="M-25.2774 57.0393L-8.54751 81.2549L8.18241 57.0393L-8.54751 32.8237L-25.2774 57.0393ZM-8.54751 76.1061L-21.7202 57.0393L-8.54751 37.9726L4.62522 57.0393L-8.54751 76.1061Z" fill="#006534"/>
<path d="M8.01568 0.724121H-25.1663L-8.5475 24.7788L8.01568 0.724121Z" fill="#006534"/>
<path d="M21.5775 95.6558L8.01567 76.0259L-8.60309 100.081H18.5205H24.5789H51.7025L35.0837 76.0259L21.5775 95.6558ZM-2.54474 96.3799L8.01567 81.0943L18.5761 96.3799H-2.54474ZM24.6344 96.3799L35.1949 81.0943L45.7553 96.3799H24.6344Z" fill="#006534"/>
</svg>
