<svg width="160" height="48" viewBox="0 0 160 48" fill="none" xmlns="http://www.w3.org/2000/svg">
<path d="M19.6403 47.0116H0V47.9653H20.5856V45.0775H19.6403V47.0116Z" fill="#B08968"/>
<path d="M17.2772 20.9987H20.5856V15.8059H17.2772V20.9987ZM19.6403 16.7597V20.0449H18.2224V16.7597H19.6403Z" fill="#B08968"/>
<path d="M5.46149 25.8457H15.2816V24.892H4.51624V28.0444H19.6403V29.4218H4.51624V32.5742H19.6141V33.8192H4.51624V36.9186H19.6141V38.1636H4.51624V41.4219H19.6141V42.7464H11.7369V43.7H20.5593V40.4682H5.46149V39.0908H20.5593V35.9914H5.46149V34.7464H20.5593V31.647H5.46149V30.3755H20.5856V27.1172H5.46149V25.8457Z" fill="#B08968"/>
<path d="M36.0773 47.0113V27.1437L23.5001 18.137V0.150208L1.89053 21.2629L1.83801 21.3158V45.4749H2.78327V24.0443L22.5549 4.44161V47.753H23.5001V26.296L35.132 34.6139V47.9649H44.532V47.0113H36.0773ZM22.5549 2.40187V3.09061L2.78327 22.6933V21.6867L22.5549 2.40187ZM35.132 32.1503V33.4483L23.5001 25.1304V23.8324L35.132 32.1503ZM35.132 29.7662V30.9847L23.5001 22.6668V21.4483L35.132 29.7662ZM35.132 27.647V28.6006L23.5001 20.2827V19.3291L35.132 27.647Z" fill="#B08968"/>
<path d="M53.5371 24.6823L52.8085 22.593H48.0913L47.4009 24.6823H44.9465L48.9733 13.0748H51.773L55.8382 24.6823H53.5371ZM48.8199 20.4262H52.0414L50.3923 15.7059L48.8199 20.4262Z" fill="#016B38"/>
<path d="M58.9446 17.795C59.1364 17.2534 59.4816 16.8664 59.9034 16.5956C60.3636 16.3248 60.8622 16.2087 61.4375 16.2087V18.6076C60.7855 18.5302 60.2102 18.6463 59.7117 18.9945C59.2131 19.3427 58.9446 19.9231 58.9446 20.6969V24.6435H56.8353V16.3634H58.9446V17.795Z" fill="#016B38"/>
<path d="M66.2698 24.9143C65.0425 24.9143 64.0071 24.4887 63.1633 23.6375C62.3196 22.7863 61.9361 21.7803 61.9361 20.5422C61.9361 19.3041 62.358 18.2594 63.1633 17.4469C64.0071 16.5957 65.0042 16.17 66.2698 16.17C67.0752 16.17 67.8038 16.3635 68.4558 16.7504C69.1078 17.1373 69.6063 17.6403 69.9515 18.2981L68.149 19.3814C67.9956 19.0332 67.7271 18.7624 67.4203 18.5689C67.0752 18.3755 66.73 18.2594 66.3081 18.2594C65.6562 18.2594 65.1576 18.4528 64.7357 18.8785C64.3139 19.3041 64.1221 19.8457 64.1221 20.5035C64.1221 21.1613 64.3139 21.7029 64.7357 22.1285C65.1576 22.5541 65.6945 22.7476 66.3081 22.7476C66.73 22.7476 67.1135 22.6702 67.4587 22.4768C67.8038 22.2833 68.0339 22.0125 68.1873 21.6642L70.0282 22.7089C69.683 23.3667 69.1461 23.8697 68.4942 24.2566C67.8038 24.7209 67.0752 24.9143 66.2698 24.9143Z" fill="#016B38"/>
<path d="M75.6657 16.1702C76.5478 16.1702 77.3148 16.4797 77.8901 17.0988C78.4653 17.7178 78.7722 18.5303 78.7722 19.6137V24.6823H76.6628V19.8459C76.6628 19.3042 76.5094 18.8786 76.2026 18.569C75.8958 18.2595 75.5123 18.1434 75.0137 18.1434C74.4768 18.1434 74.0166 18.2982 73.7098 18.6464C73.3646 18.9946 73.2112 19.4976 73.2112 20.1941V24.6823H71.1019V13.0748H73.2112V17.3309C73.7482 16.5571 74.5535 16.1702 75.6657 16.1702Z" fill="#016B38"/>
<path d="M87.6313 18.6463C88.6284 19.2267 89.127 20.1166 89.127 21.2773C89.127 22.2446 88.7818 23.0571 88.0915 23.6762C87.4012 24.2953 86.5574 24.6048 85.5603 24.6048H80.6897V12.9973H85.2151C86.2123 12.9973 87.0176 13.3068 87.708 13.9259C88.3983 14.545 88.7051 15.3188 88.7051 16.2861C88.7051 17.2921 88.3216 18.0659 87.6313 18.6463ZM85.2151 15.2027H82.9524V17.7564H85.2151C85.5603 17.7564 85.8671 17.6403 86.0972 17.4082C86.3273 17.176 86.4424 16.8665 86.4424 16.4796C86.4424 16.1313 86.3273 15.8218 86.0972 15.551C85.8671 15.3188 85.5603 15.2027 85.2151 15.2027ZM85.5603 22.5155C85.9438 22.5155 86.2506 22.3994 86.5191 22.1285C86.7875 21.8577 86.9026 21.5482 86.9026 21.1613C86.9026 20.7743 86.7875 20.4648 86.5191 20.194C86.2506 19.9231 85.9438 19.807 85.5603 19.807H82.9524V22.5542H85.5603V22.5155Z" fill="#016B38"/>
<path d="M96.874 16.4022H98.9833V24.6822H96.874V23.7149C96.222 24.5274 95.3399 24.9143 94.1894 24.9143C93.0772 24.9143 92.1568 24.4887 91.3898 23.6375C90.6227 22.7863 90.2009 21.7416 90.2009 20.5422C90.2009 19.3041 90.5844 18.2981 91.3898 17.4469C92.1568 16.5957 93.1156 16.17 94.1894 16.17C95.3399 16.17 96.222 16.557 96.874 17.3695V16.4022ZM92.9622 22.2059C93.384 22.6315 93.9209 22.8637 94.5729 22.8637C95.2249 22.8637 95.7618 22.6315 96.222 22.2059C96.6439 21.7803 96.874 21.1999 96.874 20.5422C96.874 19.8457 96.6439 19.3041 96.222 18.8785C95.8001 18.4528 95.2632 18.2207 94.5729 18.2207C93.9209 18.2207 93.384 18.4528 92.9622 18.8785C92.5403 19.3041 92.3102 19.8844 92.3102 20.5422C92.3102 21.1999 92.5403 21.7803 92.9622 22.2059Z" fill="#016B38"/>
<path d="M108.456 24.6823H106.001L103.01 20.9292V24.6823H100.901V13.0748H103.01V20.0393L105.848 16.3636H108.379L105.081 20.4649L108.456 24.6823Z" fill="#016B38"/>
<path d="M114.592 16.4022H116.701V24.6822H114.592V23.7536C114.094 24.5274 113.25 24.9143 112.138 24.9143C111.256 24.9143 110.489 24.6048 109.913 23.9857C109.338 23.3667 109.031 22.5542 109.031 21.4708V16.4022H111.141V21.2386C111.141 21.7803 111.294 22.2059 111.601 22.5155C111.908 22.825 112.291 22.9411 112.79 22.9411C113.327 22.9411 113.787 22.7863 114.094 22.4381C114.439 22.0899 114.592 21.5869 114.592 20.8904V16.4022Z" fill="#016B38"/>
<path d="M134.113 13.0748V24.6823H131.85V17.1761L128.629 22.5543H128.36L125.139 17.2148V24.721H122.876V13.1135H125.215L128.514 18.569L131.774 13.1135H134.113V13.0748Z" fill="#016B38"/>
<path d="M147.498 13.0748V24.6823H145.235V17.1761L142.013 22.5543H141.745L138.523 17.2148V24.721H136.222V13.1135H138.562L141.86 18.569L145.12 13.1135H147.498V13.0748Z" fill="#016B38"/>
<path d="M155.053 24.9143C153.327 24.9143 151.908 24.3339 150.757 23.1732C149.645 22.0125 149.07 20.5809 149.07 18.8784C149.07 17.176 149.645 15.7444 150.757 14.5837C151.87 13.4229 153.327 12.8426 155.053 12.8426C156.088 12.8426 157.047 13.0747 157.929 13.5777C158.811 14.0807 159.501 14.7384 160 15.5897L158.044 16.7504C157.776 16.2474 157.354 15.8218 156.817 15.551C156.28 15.2414 155.705 15.1254 155.053 15.1254C153.941 15.1254 153.02 15.4736 152.368 16.17C151.678 16.8665 151.333 17.7951 151.333 18.9171C151.333 20.0392 151.678 20.9291 152.368 21.6642C153.058 22.3607 153.941 22.7089 155.053 22.7089C155.705 22.7089 156.318 22.5541 156.817 22.2833C157.354 21.9738 157.737 21.5869 158.006 21.0839L159.962 22.2446C159.463 23.0958 158.773 23.7536 157.929 24.2566C157.085 24.6435 156.127 24.9143 155.053 24.9143Z" fill="#016B38"/>
<path d="M69.3378 40.507V32.6913H70.2583V40.507H69.3378Z" fill="#016B38"/>
<path d="M76.0494 35.1677H76.9698V40.5079H76.0494V39.5791C75.5891 40.2757 74.9372 40.6239 74.0551 40.6239C73.3264 40.6239 72.6745 40.3531 72.1759 39.8113C71.639 39.2695 71.4089 38.6117 71.4089 37.8378C71.4089 37.0638 71.6773 36.406 72.1759 35.8642C72.7128 35.3225 73.3264 35.0516 74.0551 35.0516C74.9372 35.0516 75.5891 35.3998 76.0494 36.0964V35.1677ZM74.1702 39.7726C74.7071 39.7726 75.1673 39.5791 75.5124 39.2308C75.8576 38.8826 76.0494 38.4182 76.0494 37.8765C76.0494 37.3347 75.8576 36.8703 75.5124 36.5221C75.1673 36.1738 74.7071 35.9803 74.1702 35.9803C73.6332 35.9803 73.2114 36.1738 72.8279 36.5221C72.4827 36.8703 72.291 37.3347 72.291 37.8765C72.291 38.4182 72.4827 38.8826 72.8279 39.2308C73.2114 39.5791 73.6332 39.7726 74.1702 39.7726Z" fill="#016B38"/>
<path d="M82.0705 35.1676H83.0676L80.92 40.8553C80.6898 41.4743 80.383 41.9386 79.9612 42.2482C79.5393 42.5577 79.0791 42.7125 78.5422 42.6738V41.7839C79.1941 41.8226 79.6544 41.4743 79.9612 40.7005L80.0762 40.507L77.7751 35.2063H78.7723L80.5364 39.3076L82.0705 35.1676Z" fill="#016B38"/>
<path d="M84.2947 34.2003C84.103 34.2003 83.9879 34.123 83.8345 34.0069C83.6811 33.8908 83.6428 33.736 83.6428 33.5813C83.6428 33.4265 83.7195 33.2718 83.8345 33.1557C83.9496 33.0396 84.103 32.9622 84.2947 32.9622C84.4481 32.9622 84.6015 33.0396 84.7166 33.1557C84.8317 33.2718 84.9084 33.4265 84.9084 33.5813C84.9084 33.736 84.8317 33.8908 84.7166 34.0069C84.6015 34.1617 84.4865 34.2003 84.2947 34.2003ZM83.8345 40.5071V35.1676H84.755V40.5071H83.8345Z" fill="#016B38"/>
<path d="M88.7819 35.0517C89.3955 35.0517 89.8941 35.2452 90.2776 35.6321C90.6611 36.019 90.8528 36.5607 90.8528 37.2571V40.5459H89.9324V37.3345C89.9324 36.9089 89.8174 36.5607 89.5873 36.3285C89.3572 36.0964 89.0503 35.9803 88.6285 35.9803C88.1683 35.9803 87.7848 36.1351 87.5163 36.4059C87.2478 36.6767 87.0944 37.141 87.0944 37.7214V40.5459H86.174V33.0784H87.0944V35.9803C87.4779 35.3225 88.0149 35.0517 88.7819 35.0517Z" fill="#016B38"/>
<path d="M96.2986 37.4121C96.2219 36.9477 95.9918 36.5607 95.6466 36.2899C95.3015 36.019 94.8796 35.9029 94.381 35.9029C93.6907 35.9029 93.1921 36.1738 92.847 36.6768L92.08 36.2125C92.5785 35.3998 93.3839 35.0129 94.4194 35.0129C95.2631 35.0129 95.9534 35.2838 96.452 35.8255C96.9889 36.3673 97.2574 37.0251 97.2574 37.8377C97.2574 38.6504 96.9889 39.3082 96.4904 39.85C95.9918 40.3917 95.3015 40.6626 94.4961 40.6626C93.7291 40.6626 93.0771 40.3917 92.5785 39.85C92.08 39.3082 91.8499 38.6504 91.8499 37.8764C91.8499 37.7217 91.8499 37.6056 91.8882 37.4508H96.2986V37.4121ZM94.4577 39.7726C94.9563 39.7726 95.3782 39.6178 95.685 39.3469C95.9918 39.0761 96.2219 38.6891 96.2986 38.2247H92.7703C92.847 38.7278 93.0387 39.1147 93.3456 39.3856C93.6907 39.6565 94.0359 39.7726 94.4577 39.7726Z" fill="#016B38"/>
<path d="M107.037 40.1976L106.193 40.6619L105.426 39.8494C104.889 40.3523 104.161 40.6232 103.317 40.6232C102.588 40.6232 101.975 40.4297 101.514 40.0428C101.054 39.6559 100.824 39.1142 100.824 38.4565C100.824 37.9922 100.939 37.5666 101.169 37.2183C101.399 36.8314 101.745 36.5219 102.166 36.3284C101.86 35.9415 101.706 35.4772 101.706 34.9742C101.706 34.3552 101.936 33.8522 102.358 33.4653C102.78 33.0783 103.317 32.8849 103.892 32.8849C104.391 32.8849 104.851 33.001 105.234 33.2718C105.618 33.5426 105.925 33.9296 106.117 34.3939L105.273 34.8582C105.158 34.5486 105.004 34.2778 104.736 34.0843C104.506 33.8909 104.199 33.8135 103.892 33.8135C103.547 33.8135 103.279 33.9296 103.048 34.123C102.818 34.3165 102.703 34.5873 102.703 34.9355C102.703 35.1677 102.742 35.3998 102.857 35.5546C102.972 35.7481 103.125 35.9415 103.355 36.1737L105.388 38.3404C105.58 37.9535 105.695 37.5279 105.771 36.9862L106.615 37.4892C106.5 38.0695 106.347 38.6112 106.04 39.0755L107.037 40.1976ZM103.355 39.7333C103.931 39.7333 104.429 39.5785 104.813 39.2303L102.818 37.0636C102.473 37.2183 102.243 37.4118 102.09 37.6439C101.936 37.9148 101.86 38.1856 101.86 38.4565C101.86 38.8434 101.975 39.1529 102.243 39.3851C102.512 39.6172 102.857 39.7333 103.355 39.7333Z" fill="#016B38"/>
<path d="M113.48 36.0579H112.061V38.9602C112.061 39.2311 112.099 39.4245 112.214 39.5019C112.329 39.618 112.483 39.6567 112.675 39.6567C112.905 39.6567 113.135 39.6567 113.442 39.6567V40.5081C112.636 40.6241 112.061 40.5468 111.678 40.3146C111.294 40.0824 111.102 39.618 111.102 38.9602V36.0579H110.067V35.1678H111.102V33.9682L112.023 33.6974V35.2065H113.442V36.0579H113.48Z" fill="#016B38"/>
<path d="M115.052 34.2003C114.861 34.2003 114.746 34.123 114.592 34.0069C114.477 33.8908 114.4 33.736 114.4 33.5813C114.4 33.4265 114.477 33.2718 114.592 33.1557C114.707 33.0396 114.861 32.9622 115.052 32.9622C115.206 32.9622 115.359 33.0396 115.474 33.1557C115.589 33.2718 115.666 33.4265 115.666 33.5813C115.666 33.736 115.589 33.8908 115.474 34.0069C115.359 34.1617 115.206 34.2003 115.052 34.2003ZM114.592 40.5071V35.1676H115.513V40.5071H114.592Z" fill="#016B38"/>
<path d="M121.38 40.5071H120.23L117.814 37.9922V40.5071H116.893V33.0396H117.814V37.5279L120.115 35.1677H121.304L118.772 37.76L121.38 40.5071Z" fill="#016B38"/>
<path d="M122.723 34.2003C122.531 34.2003 122.416 34.123 122.262 34.0069C122.147 33.8908 122.071 33.736 122.071 33.5813C122.071 33.4265 122.147 33.2718 122.262 33.1557C122.377 33.0396 122.531 32.9622 122.723 32.9622C122.876 32.9622 123.029 33.0396 123.144 33.1557C123.26 33.2718 123.336 33.4265 123.336 33.5813C123.336 33.736 123.26 33.8908 123.144 34.0069C123.029 34.1617 122.876 34.2003 122.723 34.2003ZM122.262 40.5071V35.1676H123.183V40.5071H122.262Z" fill="#016B38"/>
<path d="M127.21 35.0516C127.823 35.0516 128.322 35.2451 128.705 35.632C129.089 36.019 129.281 36.5607 129.281 37.2573V40.5465H128.36V37.3347C128.36 36.909 128.245 36.5607 128.015 36.3286C127.785 36.0964 127.478 35.9803 127.056 35.9803C126.596 35.9803 126.213 36.1351 125.944 36.406C125.676 36.6768 125.522 37.1412 125.522 37.7217V40.5465H124.602V35.2064H125.522V35.9803C125.867 35.3225 126.443 35.0516 127.21 35.0516Z" fill="#016B38"/>
<path d="M133.423 36.0579H132.004V38.9602C132.004 39.2311 132.042 39.4245 132.157 39.5019C132.272 39.618 132.426 39.6567 132.617 39.6567C132.847 39.6567 133.077 39.6567 133.384 39.6567V40.5081C132.579 40.6241 132.004 40.5468 131.62 40.3146C131.237 40.0824 131.045 39.618 131.045 38.9602V36.0579H130.009V35.1678H131.045V33.9682L131.965 33.6974V35.2065H133.384V36.0579H133.423Z" fill="#016B38"/>
<path d="M134.995 34.2003C134.803 34.2003 134.688 34.123 134.535 34.0069C134.42 33.8908 134.343 33.736 134.343 33.5813C134.343 33.4265 134.42 33.2718 134.535 33.1557C134.65 33.0396 134.803 32.9622 134.995 32.9622C135.148 32.9622 135.302 33.0396 135.417 33.1557C135.532 33.2718 135.609 33.4265 135.609 33.5813C135.609 33.736 135.532 33.8908 135.417 34.0069C135.302 34.1617 135.148 34.2003 134.995 34.2003ZM134.496 40.5071V35.1676H135.417V40.5071H134.496Z" fill="#016B38"/>
</svg>
