<svg width="195" height="56" viewBox="0 0 195 56" fill="none" xmlns="http://www.w3.org/2000/svg">
<path d="M23.8173 54.883H0V55.9999H24.9636V52.6182H23.8173V54.883Z" fill="white"/>
<path d="M20.9515 24.4168H24.9635V18.3359H20.9515V24.4168ZM23.8173 19.4528V23.2999H22.0978V19.4528H23.8173Z" fill="white"/>
<path d="M6.62297 30.0939H18.5316V28.9771H5.47668V32.669H23.8173V34.2823H5.47668V37.9743H23.7854V39.4325H5.47668V43.0624H23.7854V44.5205H5.47668V48.3366H23.7854V49.8879H14.233V51.0047H24.9317V47.2197H6.62297V45.6064H24.9317V41.9765H6.62297V40.5183H24.9317V36.8884H6.62297V35.3992H24.9636V31.5831H6.62297V30.0939Z" fill="white"/>
<path d="M43.75 54.8831V31.6144L28.498 21.0659V0L2.29263 24.7269L2.22894 24.7889V53.0837H3.37523V27.9845L27.3517 5.02604V55.7518H28.498V30.6216L42.6037 40.3634V56H54.0029V54.8831H43.75ZM27.3517 2.63712V3.44377L3.37523 26.4022V25.2233L27.3517 2.63712ZM42.6037 37.4781V38.9983L28.498 29.2565V27.7363L42.6037 37.4781ZM42.6037 34.6859V36.113L28.498 26.3712V24.944L42.6037 34.6859ZM42.6037 32.2039V33.3208L28.498 23.5789V22.462L42.6037 32.2039Z" fill="white"/>
<path d="M64.9231 28.7317L64.0395 26.2847H58.319L57.4819 28.7317H54.5054L59.3887 15.1372H62.7838L67.7136 28.7317H64.9231ZM59.2027 23.7471H63.1093L61.1095 18.2186L59.2027 23.7471Z" fill="white"/>
<path d="M71.4807 20.6651C71.7132 20.0306 72.1318 19.5775 72.6434 19.2603C73.2015 18.9431 73.8061 18.8071 74.5037 18.8071V21.6167C73.7131 21.526 73.0154 21.662 72.4109 22.0698C71.8063 22.4777 71.4807 23.1574 71.4807 24.0637V28.6858H68.9228V18.9884H71.4807V20.6651Z" fill="white"/>
<path d="M80.3636 29.0034C78.8754 29.0034 77.6197 28.505 76.5965 27.508C75.5734 26.5111 75.1083 25.3329 75.1083 23.8828C75.1083 22.4327 75.6199 21.2092 76.5965 20.2576C77.6197 19.2607 78.8289 18.7622 80.3636 18.7622C81.3403 18.7622 82.2239 18.9888 83.0146 19.4419C83.8052 19.8951 84.4098 20.4842 84.8283 21.2545L82.6425 22.5234C82.4565 22.1155 82.1309 21.7983 81.7588 21.5717C81.3403 21.3452 80.9217 21.2092 80.4101 21.2092C79.6195 21.2092 79.0149 21.4358 78.5033 21.9343C77.9917 22.4327 77.7592 23.0671 77.7592 23.8375C77.7592 24.6079 77.9917 25.2423 78.5033 25.7407C79.0149 26.2392 79.666 26.4658 80.4101 26.4658C80.9217 26.4658 81.3868 26.3751 81.8054 26.1486C82.2239 25.922 82.503 25.6048 82.689 25.1969L84.9214 26.4205C84.5028 27.1908 83.8517 27.7799 83.0611 28.2331C82.2239 28.7768 81.3403 29.0034 80.3636 29.0034Z" fill="white"/>
<path d="M91.758 18.7624C92.8277 18.7624 93.7579 19.1249 94.4555 19.85C95.1531 20.575 95.5251 21.5266 95.5251 22.7955V28.7317H92.9672V23.0674C92.9672 22.4329 92.7812 21.9345 92.4091 21.572C92.0371 21.2094 91.572 21.0735 90.9674 21.0735C90.3163 21.0735 89.7582 21.2547 89.3861 21.6626C88.9676 22.0704 88.7815 22.6595 88.7815 23.4752V28.7317H86.2236V15.1372H88.7815V20.1219C89.4327 19.2156 90.4093 18.7624 91.758 18.7624Z" fill="white"/>
<path d="M106.268 21.6624C107.478 22.3421 108.082 23.3844 108.082 24.7438C108.082 25.8767 107.664 26.8283 106.826 27.5534C105.989 28.2784 104.966 28.6409 103.757 28.6409H97.8505V15.0464H103.338C104.548 15.0464 105.524 15.4089 106.361 16.1339C107.198 16.859 107.571 17.7653 107.571 18.8982C107.571 20.0764 107.105 20.9827 106.268 21.6624ZM103.338 17.6293H100.594V20.6201H103.338C103.757 20.6201 104.129 20.4842 104.408 20.2123C104.687 19.9404 104.827 19.5779 104.827 19.1247C104.827 18.7169 104.687 18.3544 104.408 18.0372C104.129 17.7653 103.757 17.6293 103.338 17.6293ZM103.757 26.1939C104.222 26.1939 104.594 26.058 104.92 25.7408C105.245 25.4235 105.385 25.061 105.385 24.6079C105.385 24.1547 105.245 23.7922 104.92 23.475C104.594 23.1578 104.222 23.0218 103.757 23.0218H100.594V26.2392H103.757V26.1939Z" fill="white"/>
<path d="M117.477 19.0341H120.034V28.7315H117.477V27.5986C116.686 28.5503 115.616 29.0034 114.221 29.0034C112.872 29.0034 111.756 28.505 110.826 27.508C109.896 26.5111 109.384 25.2876 109.384 23.8828C109.384 22.4327 109.849 21.2545 110.826 20.2576C111.756 19.2607 112.919 18.7622 114.221 18.7622C115.616 18.7622 116.686 19.2154 117.477 20.167V19.0341ZM112.733 25.8314C113.244 26.3298 113.896 26.6017 114.686 26.6017C115.477 26.6017 116.128 26.3298 116.686 25.8314C117.198 25.3329 117.477 24.6532 117.477 23.8828C117.477 23.0671 117.198 22.4327 116.686 21.9343C116.174 21.4358 115.523 21.1639 114.686 21.1639C113.896 21.1639 113.244 21.4358 112.733 21.9343C112.221 22.4327 111.942 23.1125 111.942 23.8828C111.942 24.6532 112.221 25.3329 112.733 25.8314Z" fill="white"/>
<path d="M131.522 28.7317H128.545L124.918 24.3362V28.7317H122.36V15.1372H124.918V23.2939L128.359 18.989H131.429L127.429 23.7924L131.522 28.7317Z" fill="white"/>
<path d="M138.963 19.0337H141.521V28.7311H138.963V27.6436C138.358 28.5499 137.335 29.003 135.987 29.003C134.917 29.003 133.987 28.6405 133.289 27.9155C132.592 27.1904 132.219 26.2388 132.219 24.97V19.0337H134.777V24.6981C134.777 25.3325 134.963 25.831 135.335 26.1935C135.708 26.556 136.173 26.692 136.777 26.692C137.428 26.692 137.986 26.5107 138.358 26.1029C138.777 25.695 138.963 25.1059 138.963 24.2902V19.0337Z" fill="white"/>
<path d="M162.635 15.1372V28.7317H159.891V19.9406L155.985 26.2394H155.659L151.753 19.9859V28.7771H149.009V15.1825H151.846L155.845 21.572L159.798 15.1825H162.635V15.1372Z" fill="white"/>
<path d="M178.867 15.1372V28.7317H176.123V19.9406L172.216 26.2394H171.89L167.984 19.9859V28.7771H165.193V15.1825H168.03L172.03 21.572L175.983 15.1825H178.867V15.1372Z" fill="white"/>
<path d="M188.028 29.003C185.936 29.003 184.215 28.3233 182.82 26.9639C181.471 25.6044 180.773 23.9278 180.773 21.9339C180.773 19.94 181.471 18.2634 182.82 16.9039C184.168 15.5445 185.936 14.8647 188.028 14.8647C189.284 14.8647 190.447 15.1366 191.517 15.7257C192.586 16.3148 193.423 17.0852 194.028 18.0821L191.656 19.4416C191.331 18.8525 190.819 18.354 190.168 18.0368C189.517 17.6743 188.819 17.5383 188.028 17.5383C186.68 17.5383 185.564 17.9462 184.773 18.7618C183.936 19.5775 183.517 20.6651 183.517 21.9792C183.517 23.2934 183.936 24.3356 184.773 25.1966C185.61 26.0123 186.68 26.4201 188.028 26.4201C188.819 26.4201 189.563 26.2388 190.168 25.9216C190.819 25.5591 191.284 25.106 191.61 24.5169L193.981 25.8763C193.377 26.8732 192.54 27.6436 191.517 28.2327C190.493 28.6858 189.331 29.003 188.028 29.003Z" fill="white"/>
<path d="M84.0842 47.2655V38.1118H85.2003V47.2655H84.0842Z" fill="white"/>
<path d="M92.223 41.0119H93.3392V47.2654H92.223V46.1778C91.665 46.9935 90.8743 47.4014 89.8047 47.4014C88.921 47.4014 88.1304 47.0841 87.5258 46.4497C86.8747 45.8153 86.5956 45.045 86.5956 44.1387C86.5956 43.2324 86.9212 42.462 87.5258 41.8276C88.1769 41.1932 88.921 40.876 89.8047 40.876C90.8743 40.876 91.665 41.2838 92.223 42.0995V41.0119ZM89.9442 46.4044C90.5953 46.4044 91.1534 46.1778 91.5719 45.77C91.9905 45.3622 92.223 44.8184 92.223 44.184C92.223 43.5496 91.9905 43.0058 91.5719 42.5979C91.1534 42.1901 90.5953 41.9635 89.9442 41.9635C89.2931 41.9635 88.7815 42.1901 88.3164 42.5979C87.8979 43.0058 87.6653 43.5496 87.6653 44.184C87.6653 44.8184 87.8979 45.3622 88.3164 45.77C88.7815 46.1778 89.2931 46.4044 89.9442 46.4044Z" fill="white"/>
<path d="M99.5248 41.0122H100.734L98.1295 47.6735C97.8505 48.3986 97.4784 48.9424 96.9668 49.3049C96.4553 49.6674 95.8972 49.8487 95.2461 49.8033V48.7611C96.0367 48.8064 96.5948 48.3986 96.9668 47.4923L97.1064 47.2657L94.3159 41.0575H95.5251L97.6645 45.8609L99.5248 41.0122Z" fill="white"/>
<path d="M102.222 39.8788C101.989 39.8788 101.85 39.7882 101.664 39.6522C101.478 39.5163 101.431 39.335 101.431 39.1537C101.431 38.9725 101.524 38.7912 101.664 38.6553C101.803 38.5193 101.989 38.4287 102.222 38.4287C102.408 38.4287 102.594 38.5193 102.734 38.6553C102.873 38.7912 102.966 38.9725 102.966 39.1537C102.966 39.335 102.873 39.5163 102.734 39.6522C102.594 39.8335 102.455 39.8788 102.222 39.8788ZM101.664 47.2652V41.0117H102.78V47.2652H101.664Z" fill="white"/>
<path d="M107.664 40.876C108.408 40.876 109.012 41.1026 109.477 41.5557C109.942 42.0089 110.175 42.6433 110.175 43.459V47.3107H109.059V43.5496C109.059 43.0511 108.919 42.6433 108.64 42.3714C108.361 42.0995 107.989 41.9636 107.477 41.9636C106.919 41.9636 106.454 42.1448 106.129 42.462C105.803 42.7792 105.617 43.323 105.617 44.0027V47.3107H104.501V38.5649H105.617V41.9636C106.082 41.1932 106.733 40.876 107.664 40.876Z" fill="white"/>
<path d="M116.779 43.6401C116.686 43.0963 116.407 42.6432 115.988 42.326C115.57 42.0088 115.058 41.8728 114.454 41.8728C113.616 41.8728 113.012 42.19 112.593 42.7791L111.663 42.2353C112.268 41.2837 113.244 40.8306 114.5 40.8306C115.523 40.8306 116.36 41.1478 116.965 41.7822C117.616 42.4166 117.942 43.1869 117.942 44.1386C117.942 45.0902 117.616 45.8605 117.011 46.4949C116.407 47.1294 115.57 47.4466 114.593 47.4466C113.663 47.4466 112.872 47.1294 112.268 46.4949C111.663 45.8605 111.384 45.0902 111.384 44.1839C111.384 44.0026 111.384 43.8667 111.431 43.6854H116.779V43.6401ZM114.547 46.4043C115.151 46.4043 115.663 46.2231 116.035 45.9059C116.407 45.5887 116.686 45.1355 116.779 44.5917H112.5C112.593 45.1808 112.826 45.634 113.198 45.9512C113.616 46.2684 114.035 46.4043 114.547 46.4043Z" fill="white"/>
<path d="M129.801 46.9029L128.778 47.4467L127.848 46.4951C127.197 47.0842 126.313 47.4014 125.29 47.4014C124.406 47.4014 123.662 47.1748 123.104 46.7217C122.546 46.2685 122.267 45.6341 122.267 44.8637C122.267 44.32 122.406 43.8215 122.685 43.4137C122.964 42.9605 123.383 42.598 123.895 42.3714C123.523 41.9183 123.336 41.3745 123.336 40.7854C123.336 40.0603 123.616 39.4713 124.127 39.0181C124.639 38.565 125.29 38.3384 125.987 38.3384C126.592 38.3384 127.15 38.4743 127.615 38.7915C128.08 39.1087 128.452 39.5619 128.685 40.1057L127.662 40.6494C127.522 40.2869 127.336 39.9697 127.011 39.7431C126.732 39.5166 126.359 39.4259 125.987 39.4259C125.569 39.4259 125.243 39.5619 124.964 39.7885C124.685 40.015 124.546 40.3322 124.546 40.7401C124.546 41.012 124.592 41.2839 124.732 41.4651C124.871 41.6917 125.057 41.9183 125.336 42.1902L127.801 44.7278C128.034 44.2746 128.173 43.7762 128.266 43.1418L129.289 43.7309C129.15 44.4106 128.964 45.045 128.592 45.5888L129.801 46.9029ZM125.336 46.3591C126.034 46.3591 126.639 46.1779 127.104 45.77L124.685 43.2324C124.267 43.4137 123.988 43.6402 123.802 43.9121C123.616 44.2293 123.523 44.5465 123.523 44.8637C123.523 45.3169 123.662 45.6794 123.988 45.9513C124.313 46.2232 124.732 46.3591 125.336 46.3591Z" fill="white"/>
<path d="M137.614 42.0543H135.894V45.4529C135.894 45.7701 135.94 45.9967 136.08 46.0873C136.219 46.2233 136.405 46.2686 136.638 46.2686C136.917 46.2686 137.196 46.2686 137.568 46.2686V47.2655C136.591 47.4015 135.894 47.3108 135.428 47.039C134.963 46.7671 134.731 46.2233 134.731 45.4529V42.0543H133.475V41.012H134.731V39.6072L135.847 39.29V41.0573H137.568V42.0543H137.614Z" fill="white"/>
<path d="M139.521 39.8788C139.289 39.8788 139.149 39.7882 138.963 39.6522C138.824 39.5163 138.731 39.335 138.731 39.1537C138.731 38.9725 138.824 38.7912 138.963 38.6553C139.103 38.5193 139.289 38.4287 139.521 38.4287C139.707 38.4287 139.893 38.5193 140.033 38.6553C140.172 38.7912 140.265 38.9725 140.265 39.1537C140.265 39.335 140.172 39.5163 140.033 39.6522C139.893 39.8335 139.707 39.8788 139.521 39.8788ZM138.963 47.2652V41.0117H140.079V47.2652H138.963Z" fill="white"/>
<path d="M147.195 47.2654H145.8L142.87 44.3199V47.2654H141.753V38.5195H142.87V43.7761L145.66 41.0119H147.102L144.032 44.048L147.195 47.2654Z" fill="white"/>
<path d="M148.823 39.8788C148.59 39.8788 148.451 39.7882 148.265 39.6522C148.125 39.5163 148.032 39.335 148.032 39.1537C148.032 38.9725 148.125 38.7912 148.265 38.6553C148.404 38.5193 148.59 38.4287 148.823 38.4287C149.009 38.4287 149.195 38.5193 149.334 38.6553C149.474 38.7912 149.567 38.9725 149.567 39.1537C149.567 39.335 149.474 39.5163 149.334 39.6522C149.195 39.8335 149.009 39.8788 148.823 39.8788ZM148.265 47.2652V41.0117H149.381V47.2652H148.265Z" fill="white"/>
<path d="M154.264 40.876C155.008 40.876 155.613 41.1026 156.078 41.5557C156.543 42.0089 156.775 42.6433 156.775 43.4589V47.3107H155.659V43.5496C155.659 43.0511 155.52 42.6433 155.241 42.3714C154.962 42.0995 154.59 41.9635 154.078 41.9635C153.52 41.9635 153.055 42.1448 152.729 42.462C152.404 42.7792 152.218 43.323 152.218 44.0027V47.3107H151.101V41.0572H152.218V41.9635C152.636 41.1932 153.334 40.876 154.264 40.876Z" fill="white"/>
<path d="M161.798 42.0543H160.077V45.4529C160.077 45.7701 160.124 45.9967 160.263 46.0873C160.403 46.2233 160.589 46.2686 160.822 46.2686C161.101 46.2686 161.38 46.2686 161.752 46.2686V47.2655C160.775 47.4015 160.077 47.3108 159.612 47.039C159.147 46.7671 158.915 46.2233 158.915 45.4529V42.0543H157.659V41.012H158.915V39.6072L160.031 39.29V41.0573H161.752V42.0543H161.798Z" fill="white"/>
<path d="M163.705 39.8788C163.472 39.8788 163.333 39.7882 163.147 39.6522C163.007 39.5163 162.914 39.335 162.914 39.1537C162.914 38.9725 163.007 38.7912 163.147 38.6553C163.286 38.5193 163.472 38.4287 163.705 38.4287C163.891 38.4287 164.077 38.5193 164.217 38.6553C164.356 38.7912 164.449 38.9725 164.449 39.1537C164.449 39.335 164.356 39.5163 164.217 39.6522C164.077 39.8335 163.891 39.8788 163.705 39.8788ZM163.1 47.2652V41.0117H164.217V47.2652H163.1Z" fill="white"/>
</svg>
