<svg width="50" height="50" viewBox="0 0 50 50" fill="none" xmlns="http://www.w3.org/2000/svg">
<path d="M15.808 27.3113H8.89203C8.43331 27.3113 8.04517 27.6994 8.04517 28.1581V35.0742C8.04517 35.5329 8.43331 35.921 8.89203 35.921H15.808C16.2668 35.921 16.6549 35.5329 16.6549 35.0742V28.1581C16.6549 27.6994 16.2668 27.3113 15.808 27.3113ZM14.9259 34.192H9.77417V29.0403H14.9612V34.192H14.9259Z" fill="#016B38"/>
<path d="M46.4714 21.0656C46.1538 20.9244 45.7657 20.995 45.5187 21.242L36.7325 30.0282L26.4996 40.2611L21.1362 45.6245C20.8892 45.8715 20.8186 46.2597 20.9598 46.5772C21.1009 46.8948 21.4185 47.1065 21.7713 47.1065H46.1891C46.6478 47.1065 47.036 46.7184 47.036 46.2597V21.8772C47.036 21.5243 46.8243 21.2067 46.4714 21.0656ZM45.307 45.4128H23.8532L27.1348 42.1312L27.9463 42.9428C28.1228 43.1192 28.3345 43.1898 28.5462 43.1898C28.7579 43.1898 29.0049 43.1192 29.1461 42.9428C29.4989 42.5899 29.4989 42.0606 29.1461 41.7078L28.3345 40.8962L30.5222 38.7085L31.3338 39.5201C31.5102 39.6965 31.7219 39.7671 31.9336 39.7671C32.1454 39.7671 32.3924 39.6965 32.5335 39.5201C32.8864 39.1672 32.8864 38.6379 32.5335 38.2851L31.7219 37.4735L33.9096 35.2858L34.7212 36.0973C34.8976 36.2738 35.1094 36.3443 35.3211 36.3443C35.5328 36.3443 35.7798 36.2738 35.9209 36.0973C36.2738 35.7445 36.2738 35.2152 35.9209 34.8623L35.1094 34.0508L37.2971 31.863L38.1087 32.6746C38.2851 32.851 38.4968 32.9216 38.7085 32.9216C38.9202 32.9216 39.1672 32.851 39.3084 32.6746C39.6612 32.3218 39.6612 31.7925 39.3084 31.4396L38.4968 30.628L40.6845 28.4403L41.4961 29.2519C41.6725 29.4283 41.8842 29.4989 42.096 29.4989C42.3077 29.4989 42.5547 29.4283 42.6958 29.2519C43.0487 28.899 43.0487 28.3698 42.6958 28.0169L41.8842 27.2053L45.1658 23.9237V45.4128H45.307Z" fill="#016B38"/>
<path d="M42.1665 31.475C41.849 31.3339 41.4608 31.4044 41.2138 31.6514L31.5455 41.3198C31.2985 41.5668 31.2279 41.9196 31.3691 42.2725C31.5102 42.59 31.8278 42.8018 32.1807 42.8018H41.849C42.3077 42.8018 42.6958 42.4136 42.6958 41.9549V32.2866C42.6958 31.9337 42.4841 31.6162 42.1665 31.475ZM40.9668 41.108H34.2625L41.0021 34.3685V41.108H40.9668Z" fill="#016B38"/>
<path d="M42.8017 15.8787C42.5547 15.6317 42.2018 15.5611 41.8843 15.6669L35.9915 17.8194C35.8857 17.8547 35.7798 17.9252 35.674 18.0311L34.0155 19.6895L23.2181 8.85678C23.0416 8.68035 22.8299 8.60978 22.6182 8.60978C22.4065 8.60978 22.1595 8.71564 22.0183 8.85678L8.99788 21.8772H5.82215L22.6182 5.0812L35.7842 18.679C36.1371 19.0319 36.6664 19.0319 37.0192 18.679C37.3721 18.3261 37.3721 17.7969 37.0192 17.444L23.2181 3.24633C22.8652 2.89347 22.3359 2.89347 21.9831 3.24633L3.10515 22.1242C2.85815 22.3712 2.78757 22.7594 2.92872 23.077C3.06986 23.3945 3.38743 23.6063 3.74029 23.6063H4.58715V46.295C4.58715 46.7537 4.97529 47.1419 5.43401 47.1419H19.1602C19.6189 47.1419 20.0071 46.7537 20.0071 46.295C20.0071 45.801 19.6189 45.4482 19.1602 45.4482H6.31616V23.6063H9.35074C9.56245 23.6063 9.80945 23.5004 9.9506 23.3592L22.6182 10.6916L32.8158 20.8892L20.0423 33.698V25.9351H26.0762C26.5349 25.9351 26.9231 25.547 26.9231 25.0883C26.9231 24.6295 26.5349 24.2414 26.0762 24.2414H19.1602C18.7015 24.2414 18.3133 24.6295 18.3133 25.0883V35.0741C18.3133 35.18 18.3486 35.2859 18.3486 35.3564L17.5723 36.1327C16.1962 37.5089 16.1962 39.7319 17.5723 41.0727C18.2428 41.7432 19.1602 42.096 20.0423 42.096C20.9245 42.096 21.8419 41.7432 22.5123 41.0727L34.1346 29.4505C34.4875 29.0976 34.4875 28.5683 34.1346 28.2155C33.7817 27.8626 33.2525 27.8626 32.8996 28.2155L23.0769 38.1087L20.5716 35.6034L36.3091 19.8307L38.8144 22.336L32.8158 28.3698C32.4629 28.7227 32.4629 29.252 32.8158 29.6048C33.1687 29.9577 33.698 29.9577 34.0508 29.6048L40.6493 23.0064C40.7551 22.9005 40.7904 22.7947 40.861 22.6888L43.0134 16.7961C43.1193 16.4432 43.0487 16.0904 42.8017 15.8787ZM21.8419 39.3084L21.3126 39.8377C20.9598 40.1906 20.5363 40.367 20.0423 40.367C19.5483 40.367 19.1249 40.1906 18.7721 39.8377C18.4192 39.4849 18.2428 39.0614 18.2428 38.5674C18.2428 38.1087 18.4192 37.65 18.7721 37.2971L19.3013 36.7679L21.8419 39.3084ZM39.6965 20.7834L37.897 18.9838L40.7551 17.9252L39.6965 20.7834Z" fill="#016B38"/>
<path d="M31.8984 30.487C31.722 30.3106 31.5102 30.24 31.2985 30.24C31.0868 30.24 30.8398 30.3458 30.6987 30.487C30.5222 30.6634 30.4517 30.8751 30.4517 31.0868C30.4517 31.2986 30.5575 31.5456 30.6987 31.6867C30.8751 31.8631 31.0868 31.9337 31.2985 31.9337C31.5102 31.9337 31.7572 31.8279 31.8984 31.6867C32.0748 31.5103 32.1454 31.2986 32.1454 31.0868C32.1454 30.8751 32.0748 30.6634 31.8984 30.487Z" fill="#016B38"/>
<path d="M22.6182 16.0198C20.8186 16.0198 19.3366 17.5018 19.3366 19.3014C19.3366 21.1009 20.8186 22.5829 22.6182 22.5829C24.4178 22.5829 25.8998 21.1009 25.8998 19.3014C25.8998 17.5018 24.4178 16.0198 22.6182 16.0198ZM22.6182 20.8539C21.7713 20.8539 21.0656 20.1482 21.0656 19.3014C21.0656 18.4545 21.7713 17.7488 22.6182 17.7488C23.465 17.7488 24.1708 18.4545 24.1708 19.3014C24.1708 20.1482 23.465 20.8539 22.6182 20.8539Z" fill="#016B38"/>
</svg>
