<svg width="46" height="46" viewBox="0 0 46 46" fill="none" xmlns="http://www.w3.org/2000/svg">
<path d="M13.808 25.3113H6.89203C6.43331 25.3113 6.04517 25.6994 6.04517 26.1581V33.0742C6.04517 33.5329 6.43331 33.921 6.89203 33.921H13.808C14.2668 33.921 14.6549 33.5329 14.6549 33.0742V26.1581C14.6549 25.6994 14.2668 25.3113 13.808 25.3113ZM12.9259 32.192H7.77417V27.0403H12.9612V32.192H12.9259Z" fill="#016B38"/>
<path d="M44.4714 19.0656C44.1538 18.9244 43.7657 18.995 43.5187 19.242L34.7325 28.0282L24.4996 38.2611L19.1362 43.6245C18.8892 43.8715 18.8186 44.2597 18.9598 44.5772C19.1009 44.8948 19.4185 45.1065 19.7713 45.1065H44.1891C44.6478 45.1065 45.036 44.7184 45.036 44.2597V19.8772C45.036 19.5243 44.8243 19.2067 44.4714 19.0656ZM43.307 43.4128H21.8532L25.1348 40.1312L25.9463 40.9428C26.1228 41.1192 26.3345 41.1898 26.5462 41.1898C26.7579 41.1898 27.0049 41.1192 27.1461 40.9428C27.4989 40.5899 27.4989 40.0606 27.1461 39.7078L26.3345 38.8962L28.5222 36.7085L29.3338 37.5201C29.5102 37.6965 29.7219 37.7671 29.9336 37.7671C30.1454 37.7671 30.3924 37.6965 30.5335 37.5201C30.8864 37.1672 30.8864 36.6379 30.5335 36.2851L29.7219 35.4735L31.9096 33.2858L32.7212 34.0973C32.8976 34.2738 33.1094 34.3443 33.3211 34.3443C33.5328 34.3443 33.7798 34.2738 33.9209 34.0973C34.2738 33.7445 34.2738 33.2152 33.9209 32.8623L33.1094 32.0508L35.2971 29.863L36.1087 30.6746C36.2851 30.851 36.4968 30.9216 36.7085 30.9216C36.9202 30.9216 37.1672 30.851 37.3084 30.6746C37.6612 30.3218 37.6612 29.7925 37.3084 29.4396L36.4968 28.628L38.6845 26.4403L39.4961 27.2519C39.6725 27.4283 39.8842 27.4989 40.096 27.4989C40.3077 27.4989 40.5547 27.4283 40.6958 27.2519C41.0487 26.899 41.0487 26.3698 40.6958 26.0169L39.8842 25.2053L43.1658 21.9237V43.4128H43.307Z" fill="#016B38"/>
<path d="M40.1665 29.475C39.849 29.3339 39.4608 29.4044 39.2138 29.6514L29.5455 39.3198C29.2985 39.5668 29.2279 39.9196 29.3691 40.2725C29.5102 40.59 29.8278 40.8018 30.1807 40.8018H39.849C40.3077 40.8018 40.6958 40.4136 40.6958 39.9549V30.2866C40.6958 29.9337 40.4841 29.6162 40.1665 29.475ZM38.9668 39.108H32.2625L39.0021 32.3685V39.108H38.9668Z" fill="#016B38"/>
<path d="M40.8017 13.8787C40.5547 13.6317 40.2018 13.5611 39.8843 13.6669L33.9915 15.8194C33.8857 15.8547 33.7798 15.9252 33.674 16.0311L32.0155 17.6895L21.2181 6.85678C21.0416 6.68035 20.8299 6.60978 20.6182 6.60978C20.4065 6.60978 20.1595 6.71564 20.0183 6.85678L6.99788 19.8772H3.82215L20.6182 3.0812L33.7842 16.679C34.1371 17.0319 34.6664 17.0319 35.0192 16.679C35.3721 16.3261 35.3721 15.7969 35.0192 15.444L21.2181 1.24633C20.8652 0.893475 20.3359 0.893475 19.9831 1.24633L1.10515 20.1242C0.858146 20.3712 0.787574 20.7594 0.928717 21.077C1.06986 21.3945 1.38743 21.6063 1.74029 21.6063H2.58715V44.295C2.58715 44.7537 2.97529 45.1419 3.43401 45.1419H17.1602C17.6189 45.1419 18.0071 44.7537 18.0071 44.295C18.0071 43.801 17.6189 43.4482 17.1602 43.4482H4.31616V21.6063H7.35074C7.56245 21.6063 7.80945 21.5004 7.9506 21.3592L20.6182 8.69164L30.8158 18.8892L18.0423 31.698V23.9351H24.0762C24.5349 23.9351 24.9231 23.547 24.9231 23.0883C24.9231 22.6295 24.5349 22.2414 24.0762 22.2414H17.1602C16.7015 22.2414 16.3133 22.6295 16.3133 23.0883V33.0741C16.3133 33.18 16.3486 33.2859 16.3486 33.3564L15.5723 34.1327C14.1962 35.5089 14.1962 37.7319 15.5723 39.0727C16.2428 39.7432 17.1602 40.096 18.0423 40.096C18.9245 40.096 19.8419 39.7432 20.5123 39.0727L32.1346 27.4505C32.4875 27.0976 32.4875 26.5683 32.1346 26.2155C31.7817 25.8626 31.2525 25.8626 30.8996 26.2155L21.0769 36.1087L18.5716 33.6034L34.3091 17.8307L36.8144 20.336L30.8158 26.3698C30.4629 26.7227 30.4629 27.252 30.8158 27.6048C31.1687 27.9577 31.698 27.9577 32.0508 27.6048L38.6493 21.0064C38.7551 20.9005 38.7904 20.7947 38.861 20.6888L41.0134 14.7961C41.1193 14.4432 41.0487 14.0904 40.8017 13.8787ZM19.8419 37.3084L19.3126 37.8377C18.9598 38.1906 18.5363 38.367 18.0423 38.367C17.5483 38.367 17.1249 38.1906 16.7721 37.8377C16.4192 37.4849 16.2428 37.0614 16.2428 36.5674C16.2428 36.1087 16.4192 35.65 16.7721 35.2971L17.3013 34.7679L19.8419 37.3084ZM37.6965 18.7834L35.897 16.9838L38.7551 15.9252L37.6965 18.7834Z" fill="#016B38"/>
<path d="M29.8984 28.487C29.722 28.3106 29.5102 28.24 29.2985 28.24C29.0868 28.24 28.8398 28.3458 28.6987 28.487C28.5222 28.6634 28.4517 28.8751 28.4517 29.0868C28.4517 29.2986 28.5575 29.5456 28.6987 29.6867C28.8751 29.8631 29.0868 29.9337 29.2985 29.9337C29.5102 29.9337 29.7572 29.8279 29.8984 29.6867C30.0748 29.5103 30.1454 29.2986 30.1454 29.0868C30.1454 28.8751 30.0748 28.6634 29.8984 28.487Z" fill="#016B38"/>
<path d="M20.6182 14.0198C18.8186 14.0198 17.3366 15.5018 17.3366 17.3014C17.3366 19.1009 18.8186 20.5829 20.6182 20.5829C22.4178 20.5829 23.8998 19.1009 23.8998 17.3014C23.8998 15.5018 22.4178 14.0198 20.6182 14.0198ZM20.6182 18.8539C19.7713 18.8539 19.0656 18.1482 19.0656 17.3014C19.0656 16.4545 19.7713 15.7488 20.6182 15.7488C21.465 15.7488 22.1708 16.4545 22.1708 17.3014C22.1708 18.1482 21.465 18.8539 20.6182 18.8539Z" fill="#016B38"/>
</svg>
