<svg width="48" height="48" viewBox="0 0 48 48" fill="none" xmlns="http://www.w3.org/2000/svg">
<path d="M45.0938 33.375V31.0312C45.0938 30.824 45.0114 30.6253 44.8649 30.4788C44.7184 30.3323 44.5197 30.25 44.3125 30.25H41.3706C41.1239 29.4551 40.804 28.6848 40.415 27.949L42.4971 25.8734C42.5698 25.8009 42.6275 25.7148 42.6669 25.62C42.7063 25.5252 42.7266 25.4235 42.7267 25.3208C42.7268 25.2181 42.7066 25.1165 42.6673 25.0216C42.628 24.9267 42.5705 24.8405 42.4978 24.7679L38.0758 20.3459C37.9294 20.1994 37.7307 20.1171 37.5235 20.117C37.4208 20.1171 37.3184 20.1374 37.2236 20.1768C37.1289 20.2162 37.0428 20.2739 36.9704 20.3467L34.8948 22.4287C34.159 22.0397 33.3887 21.7198 32.5938 21.4731V18.5312C32.5938 18.324 32.5114 18.1253 32.3649 17.9788C32.2184 17.8323 32.0197 17.75 31.8125 17.75H29.4688V11.421C30.0897 11.2974 30.6712 11.0247 31.1633 10.6263C31.6554 10.228 32.0432 9.71593 32.2933 9.13433C32.5434 8.55273 32.6484 7.91903 32.5991 7.28784C32.5498 6.65666 32.3477 6.04693 32.0104 5.51121C31.673 4.97548 31.2104 4.52984 30.6625 4.21269C30.1145 3.89553 29.4977 3.71638 28.8651 3.69067C28.2325 3.66497 27.6032 3.79348 27.0313 4.06513C26.4594 4.33678 25.9622 4.74342 25.5825 5.25H10.7188V4.46875C10.7188 4.26155 10.6364 4.06284 10.4899 3.91632C10.3434 3.76981 10.1447 3.6875 9.9375 3.6875H8.375V1.34375C8.375 1.13655 8.29269 0.937836 8.14618 0.791323C7.99966 0.64481 7.80095 0.5625 7.59375 0.5625H3.6875C3.4803 0.5625 3.28159 0.64481 3.13507 0.791323C2.98856 0.937836 2.90625 1.13655 2.90625 1.34375V3.6875H1.34375C1.13655 3.6875 0.937836 3.76981 0.791323 3.91632C0.64481 4.06284 0.5625 4.26155 0.5625 4.46875V10.7188C0.5625 10.926 0.64481 11.1247 0.791323 11.2712C0.937836 11.4177 1.13655 11.5 1.34375 11.5H2.125V46.6562C2.125 46.8634 2.20731 47.0622 2.35382 47.2087C2.50034 47.3552 2.69905 47.4375 2.90625 47.4375H8.375C8.5822 47.4375 8.78091 47.3552 8.92743 47.2087C9.07394 47.0622 9.15625 46.8634 9.15625 46.6562V11.5H9.9375C10.1447 11.5 10.3434 11.4177 10.4899 11.2712C10.6364 11.1247 10.7188 10.926 10.7188 10.7188V9.9375H25.5825C26.1506 10.6984 26.9769 11.2259 27.9062 11.421V17.75H25.5625C25.3553 17.75 25.1566 17.8323 25.0101 17.9788C24.8636 18.1253 24.7812 18.324 24.7812 18.5312V21.4731C23.9864 21.7199 23.216 22.0398 22.4802 22.4287L20.4046 20.3467C20.3322 20.2739 20.2462 20.2162 20.1514 20.1768C20.0566 20.1374 19.955 20.1171 19.8523 20.1171C19.6451 20.1171 19.4457 20.1994 19.2992 20.346L14.8772 24.768C14.8046 24.8406 14.747 24.9267 14.7077 25.0216C14.6684 25.1165 14.6483 25.2182 14.6483 25.3209C14.6484 25.4235 14.6687 25.5252 14.7081 25.62C14.7475 25.7148 14.8052 25.8009 14.878 25.8734L16.96 27.949C16.571 28.6848 16.2511 29.4551 16.0044 30.25H13.0625C12.8553 30.25 12.6566 30.3323 12.5101 30.4788C12.3636 30.6253 12.2812 30.824 12.2812 31.0312V33.519C11.8256 33.6795 11.4308 33.9771 11.151 34.371C10.8712 34.7648 10.7202 35.2356 10.7188 35.7188V41.9688C10.7202 42.4519 10.8712 42.9227 11.151 43.3165C11.4308 43.7104 11.8256 44.008 12.2812 44.1685V46.6562C12.2812 46.8634 12.3636 47.0622 12.5101 47.2087C12.6566 47.3552 12.8553 47.4375 13.0625 47.4375H17.75C17.9572 47.4375 18.1559 47.3552 18.3024 47.2087C18.4489 47.0622 18.5312 46.8634 18.5312 46.6562V44.3125H39.625V46.6562C39.625 46.8634 39.7073 47.0622 39.8538 47.2087C40.0003 47.3552 40.1991 47.4375 40.4062 47.4375H45.0938C45.3009 47.4375 45.4997 47.3552 45.6462 47.2087C45.7927 47.0622 45.875 46.8634 45.875 46.6562V44.1685C46.3307 44.008 46.7255 43.7104 47.0053 43.3165C47.285 42.9227 47.436 42.4519 47.4375 41.9688V35.7188C47.4368 35.0974 47.1897 34.5016 46.7503 34.0622C46.3109 33.6228 45.7151 33.3757 45.0938 33.375ZM4.46875 2.125H6.8125V3.6875H4.46875V2.125ZM7.59375 45.875H3.6875V43.1094L7.59375 39.7612V45.875ZM3.6875 41.0513V35.0737L7.17452 38.0625L3.6875 41.0513ZM7.59375 36.3638L4.10673 33.375L7.59375 30.3862V36.3638ZM3.6875 31.6763V25.6987L7.17452 28.6875L3.6875 31.6763ZM7.59375 26.9888L4.10673 24L7.59375 21.0112V26.9888ZM3.6875 22.3013V16.3237L7.17452 19.3125L3.6875 22.3013ZM7.59375 17.6138L3.6875 14.2656V11.5H7.59375V17.6138ZM9.15625 6.03125V9.9375H2.125V5.25H9.15625V6.03125ZM24.8602 8.375H10.7188V6.8125H24.8602C24.7549 7.32801 24.7549 7.85949 24.8602 8.375ZM26.3438 7.59375C26.3438 7.1302 26.4812 6.67706 26.7387 6.29163C26.9963 5.9062 27.3623 5.6058 27.7906 5.42841C28.2189 5.25101 28.6901 5.2046 29.1447 5.29503C29.5994 5.38547 30.017 5.60869 30.3448 5.93647C30.6726 6.26425 30.8958 6.68186 30.9862 7.13651C31.0767 7.59115 31.0302 8.0624 30.8528 8.49066C30.6754 8.91893 30.375 9.28497 29.9896 9.54251C29.6042 9.80004 29.1511 9.9375 28.6875 9.9375C28.0661 9.93682 27.4704 9.68967 27.031 9.25028C26.5916 8.81089 26.3444 8.21514 26.3438 7.59375ZM13.8438 31.8125H16.5938C16.7667 31.8125 16.9347 31.7551 17.0715 31.6493C17.2083 31.5436 17.3062 31.3954 17.3498 31.2281C17.627 30.1684 18.049 29.1518 18.6037 28.2073C18.6913 28.058 18.7268 27.8839 18.7046 27.7124C18.6824 27.5408 18.6039 27.3814 18.4813 27.2593L16.5354 25.3195L19.8508 22.0041L21.7905 23.95C21.9128 24.0724 22.0721 24.1508 22.2436 24.1729C22.4151 24.1951 22.5892 24.1597 22.7385 24.0724C23.6831 23.5177 24.6996 23.0958 25.7593 22.8185C25.9267 22.7749 26.0748 22.6771 26.1806 22.5402C26.2863 22.4034 26.3437 22.2354 26.3438 22.0625V19.3125H31.0312V22.0625C31.0313 22.2354 31.0887 22.4034 31.1944 22.5403C31.3002 22.6771 31.4483 22.775 31.6156 22.8186C32.6754 23.0958 33.6919 23.5177 34.6365 24.0725C34.7857 24.16 34.9598 24.1955 35.1314 24.1734C35.303 24.1512 35.4624 24.0726 35.5844 23.95L37.5242 22.0041L40.8396 25.3195L38.8937 27.2593C38.7712 27.3814 38.6926 27.5407 38.6704 27.7123C38.6483 27.8839 38.6838 28.058 38.7713 28.2072C39.326 29.1518 39.748 30.1683 40.0252 31.2281C40.0688 31.3954 40.1667 31.5436 40.3035 31.6493C40.4403 31.7551 40.6083 31.8125 40.7812 31.8125H43.5312V33.375H38.0229C37.8288 31.0326 36.7611 28.8487 35.0318 27.2568C33.3025 25.6649 31.038 24.7813 28.6875 24.7813C26.337 24.7813 24.0725 25.6649 22.3432 27.2568C20.6139 28.8487 19.5462 31.0326 19.3521 33.375H13.8438V31.8125ZM36.4604 33.375H20.9146C21.1081 31.448 22.0106 29.6616 23.4469 28.3624C24.8831 27.0632 26.7508 26.3438 28.6875 26.3438C30.6242 26.3438 32.4919 27.0632 33.9281 28.3624C35.3644 29.6616 36.2669 31.448 36.4604 33.375ZM12.6094 42.5877C12.5095 42.518 12.4276 42.4255 12.3706 42.3179C12.3135 42.2102 12.2829 42.0906 12.2812 41.9688V35.7188C12.2815 35.5116 12.3639 35.3131 12.5104 35.1666C12.6568 35.0202 12.8554 34.9378 13.0625 34.9375H15.797L12.6094 42.5877ZM16.9688 45.875H13.8438V44.3125H16.9688V45.875ZM18.0105 42.75H14.2342L17.4895 34.9375H21.2658L18.0105 42.75ZM19.703 42.75L22.9582 34.9375H26.7345L23.4793 42.75H19.703ZM25.1717 42.75L28.427 34.9375H32.2033L28.948 42.75H25.1717ZM30.6405 42.75L33.8957 34.9375H38.4533L35.198 42.75H30.6405ZM40.4062 42.75H36.8905L40.1457 34.9375H43.922L40.6668 42.75H40.4062ZM44.3125 45.875H41.1875V44.3125H44.3125V45.875ZM45.875 41.9688C45.8747 42.1759 45.7923 42.3744 45.6459 42.5209C45.4994 42.6673 45.3009 42.7497 45.0938 42.75H42.3592L45.5469 35.0998C45.6468 35.1695 45.7286 35.262 45.7857 35.3696C45.8427 35.4773 45.8734 35.5969 45.875 35.7188V41.9688Z" fill="#016B38" stroke="#016B38" stroke-width="0.3"/>
</svg>
