<svg width="50" height="50" viewBox="0 0 50 50" fill="none" xmlns="http://www.w3.org/2000/svg">
<path d="M14.0625 12.1094C14.062 11.6951 13.8973 11.298 13.6043 11.005C13.3114 10.7121 12.9143 10.5473 12.5 10.5469H9.375C8.96074 10.5473 8.56359 10.7121 8.27067 11.005C7.97775 11.298 7.81297 11.6951 7.8125 12.1094V14.4531C7.81297 14.8674 7.97775 15.2645 8.27067 15.5575C8.56359 15.8504 8.96074 16.0152 9.375 16.0156H12.5C12.9143 16.0152 13.3114 15.8504 13.6043 15.5575C13.8973 15.2645 14.062 14.8674 14.0625 14.4531V12.1094ZM9.375 14.4531V12.1094H12.5L12.5008 14.4531H9.375ZM23.4375 12.1094C23.437 11.6951 23.2723 11.298 22.9793 11.005C22.6864 10.7121 22.2893 10.5473 21.875 10.5469H18.75C18.3357 10.5473 17.9386 10.7121 17.6457 11.005C17.3527 11.298 17.188 11.6951 17.1875 12.1094V14.4531C17.188 14.8674 17.3527 15.2645 17.6457 15.5575C17.9386 15.8504 18.3357 16.0152 18.75 16.0156H21.875C22.2893 16.0152 22.6864 15.8504 22.9793 15.5575C23.2723 15.2645 23.437 14.8674 23.4375 14.4531V12.1094ZM18.75 14.4531V12.1094H21.875L21.8758 14.4531H18.75ZM14.0625 19.1406C14.062 18.7264 13.8973 18.3292 13.6043 18.0363C13.3114 17.7434 12.9143 17.5786 12.5 17.5781H9.375C8.96074 17.5786 8.56359 17.7434 8.27067 18.0363C7.97775 18.3292 7.81297 18.7264 7.8125 19.1406V21.4844C7.81297 21.8986 7.97775 22.2958 8.27067 22.5887C8.56359 22.8816 8.96074 23.0464 9.375 23.0469H12.5C12.9143 23.0464 13.3114 22.8816 13.6043 22.5887C13.8973 22.2958 14.062 21.8986 14.0625 21.4844V19.1406ZM9.375 21.4844V19.1406H12.5L12.5008 21.4844H9.375ZM23.4375 19.1406C23.437 18.7264 23.2723 18.3292 22.9793 18.0363C22.6864 17.7434 22.2893 17.5786 21.875 17.5781H18.75C18.3357 17.5786 17.9386 17.7434 17.6457 18.0363C17.3527 18.3292 17.188 18.7264 17.1875 19.1406V21.4844C17.188 21.8986 17.3527 22.2958 17.6457 22.5887C17.9386 22.8816 18.3357 23.0464 18.75 23.0469H21.875C22.2893 23.0464 22.6864 22.8816 22.9793 22.5887C23.2723 22.2958 23.437 21.8986 23.4375 21.4844V19.1406ZM18.75 21.4844V19.1406H21.875L21.8758 21.4844H18.75ZM12.5 24.6094H9.375C8.96074 24.6098 8.56359 24.7746 8.27067 25.0675C7.97775 25.3605 7.81297 25.7576 7.8125 26.1719V28.5156C7.81297 28.9299 7.97775 29.327 8.27067 29.62C8.56359 29.9129 8.96074 30.0777 9.375 30.0781H12.5C12.9143 30.0777 13.3114 29.9129 13.6043 29.62C13.8973 29.327 14.062 28.9299 14.0625 28.5156V26.1719C14.062 25.7576 13.8973 25.3605 13.6043 25.0675C13.3114 24.7746 12.9143 24.6098 12.5 24.6094ZM9.375 28.5156V26.1719H12.5L12.5008 28.5156H9.375ZM21.875 24.6094H18.75C18.3357 24.6098 17.9386 24.7746 17.6457 25.0675C17.3527 25.3605 17.188 25.7576 17.1875 26.1719V28.5156C17.188 28.9299 17.3527 29.327 17.6457 29.62C17.9386 29.9129 18.3357 30.0777 18.75 30.0781H21.875C22.2893 30.0777 22.6864 29.9129 22.9793 29.62C23.2723 29.327 23.437 28.9299 23.4375 28.5156V26.1719C23.437 25.7576 23.2723 25.3605 22.9793 25.0675C22.6864 24.7746 22.2893 24.6098 21.875 24.6094ZM18.75 28.5156V26.1719H21.875L21.8758 28.5156H18.75ZM48.4375 23.8281C48.4375 23.7255 48.4173 23.6239 48.3781 23.5291C48.3388 23.4343 48.2813 23.3482 48.2087 23.2756C48.1362 23.2031 48.0501 23.1455 47.9553 23.1063C47.8605 23.067 47.7589 23.0468 47.6562 23.0469H25.7812C25.5761 23.0533 25.3811 23.1377 25.2359 23.2828C25.0908 23.4279 25.0064 23.623 25 23.8281V38.7828C24.4354 38.9299 23.9233 39.2323 23.5219 39.6558C23.1206 40.0793 22.846 40.6068 22.7294 41.1785C22.6128 41.7502 22.6588 42.3431 22.8623 42.89C23.0658 43.4368 23.4185 43.9156 23.8804 44.2721C24.3424 44.6285 24.895 44.8483 25.4756 44.9064C26.0561 44.9645 26.6414 44.8587 27.1648 44.6009C27.6882 44.3431 28.1289 43.9437 28.4367 43.448C28.7445 42.9524 28.9072 42.3803 28.9062 41.7969C28.9024 41.5922 28.8183 41.3973 28.6722 41.254C28.5262 41.1106 28.3296 41.0303 28.125 41.0303C27.9203 41.0303 27.7238 41.1106 27.5777 41.254C27.4316 41.3973 27.3476 41.5923 27.3438 41.7969C27.3437 42.106 27.2521 42.408 27.0804 42.665C26.9087 42.9219 26.6647 43.1222 26.3792 43.2404C26.0936 43.3587 25.7795 43.3896 25.4764 43.3293C25.1733 43.2691 24.8949 43.1202 24.6764 42.9017C24.4579 42.6832 24.3091 42.4048 24.2488 42.1017C24.1885 41.7986 24.2194 41.4844 24.3377 41.1989C24.456 40.9134 24.6562 40.6694 24.9132 40.4977C25.1701 40.326 25.4722 40.2344 25.7812 40.2344C25.8839 40.2344 25.9855 40.2142 26.0803 40.175C26.1751 40.1357 26.2612 40.0782 26.3337 40.0056C26.4063 39.9331 26.4638 39.8469 26.5031 39.7521C26.5423 39.6573 26.5625 39.5557 26.5625 39.4531V29.2969H39.3719C39.3719 29.2969 35.9746 44.8098 35.9741 44.9219H33.5938C33.3893 44.926 33.1945 45.0101 33.0513 45.1562C32.9082 45.3022 32.828 45.4986 32.828 45.7032C32.828 45.9077 32.9082 46.1041 33.0514 46.2501C33.1946 46.3962 33.3893 46.4803 33.5938 46.4844H47.6562C47.7666 46.4817 47.8752 46.4559 47.9751 46.4087C48.0749 46.3615 48.1637 46.2939 48.2359 46.2103C48.308 46.1267 48.3618 46.0289 48.3939 45.9233C48.4259 45.8176 48.4355 45.7064 48.422 45.5968C48.4085 45.4872 48.3722 45.3816 48.3154 45.2869C48.2586 45.1922 48.1826 45.1105 48.0924 45.0469C48.0021 44.9833 47.8995 44.9393 47.7912 44.9178C47.6829 44.8963 47.5713 44.8977 47.4635 44.9219C47.463 44.8113 44.0655 29.2969 44.0655 29.2969H47.6562C47.8614 29.2903 48.0563 29.2059 48.2014 29.0608C48.3465 28.9157 48.431 28.7207 48.4375 28.5156V23.8281ZM46.875 26.5348L45.0768 24.6094H46.875V26.5348ZM40.6992 27.7344L43.2785 24.9729L45.8578 27.7344H40.6992ZM34.526 24.9733L37.1028 27.7344H31.9513L34.526 24.9733ZM30.1544 27.3705L27.5786 24.6094H32.7291L30.1544 27.3705ZM36.3238 24.6094H41.48L38.9008 27.3708L36.3238 24.6094ZM26.5625 25.8109L28.3569 27.7344H26.5625V25.8109ZM45.9061 44.9219C44.4223 44.9213 39.0587 44.928 37.5375 44.9219L40.9716 29.2969H42.466L45.9061 44.9219Z" fill="#016B38" stroke="#016B38" stroke-width="0.5"/>
<path d="M23.0781 38.6719C23.0782 38.5693 23.058 38.4677 23.0187 38.3729C22.9795 38.2781 22.9219 38.1919 22.8494 38.1194C22.7768 38.0468 22.6907 37.9893 22.5959 37.95C22.5011 37.9108 22.3995 37.8906 22.2969 37.8906H19.5312V32.4219C19.5313 32.3193 19.5111 32.2177 19.4718 32.1229C19.4326 32.0281 19.375 31.9419 19.3025 31.8694C19.2299 31.7968 19.1438 31.7393 19.049 31.7C18.9542 31.6608 18.8526 31.6406 18.75 31.6406H12.5C12.3974 31.6406 12.2958 31.6608 12.201 31.7C12.1062 31.7393 12.0201 31.7968 11.9475 31.8694C11.875 31.9419 11.8174 32.0281 11.7782 32.1229C11.7389 32.2177 11.7187 32.3193 11.7188 32.4219V37.8906H4.6875V8.20312H26.5625V21.4844C26.5625 21.6916 26.6448 21.8903 26.7913 22.0368C26.9378 22.1833 27.1365 22.2656 27.3438 22.2656C27.551 22.2656 27.7497 22.1833 27.8962 22.0368C28.0427 21.8903 28.125 21.6916 28.125 21.4844V14.4531H35.1562V21.4844C35.1562 21.6916 35.2386 21.8903 35.3851 22.0368C35.5316 22.1833 35.7303 22.2656 35.9375 22.2656C36.1447 22.2656 36.3434 22.1833 36.4899 22.0368C36.6364 21.8903 36.7188 21.6916 36.7188 21.4844V14.4531C37.133 14.4527 37.5302 14.2879 37.8231 13.995C38.116 13.702 38.2808 13.3049 38.2812 12.8906V11.3281C38.2808 10.9139 38.116 10.5167 37.8231 10.2238C37.5302 9.93087 37.133 9.7661 36.7188 9.76562H28.125V8.20312C28.5393 8.20265 28.9364 8.03788 29.2293 7.74496C29.5223 7.45203 29.687 7.05488 29.6875 6.64062V5.07812C29.687 4.66387 29.5223 4.26672 29.2293 3.97379C28.9364 3.68087 28.5393 3.5161 28.125 3.51562H3.125C2.71074 3.5161 2.31359 3.68087 2.02067 3.97379C1.72775 4.26672 1.56297 4.66387 1.5625 5.07812V6.64062C1.56297 7.05488 1.72775 7.45203 2.02067 7.74496C2.31359 8.03788 2.71074 8.20265 3.125 8.20312V37.8906H2.34375C2.13919 37.8946 1.94435 37.9787 1.8011 38.1248C1.65784 38.2709 1.5776 38.4673 1.57761 38.6719C1.57762 38.8765 1.65787 39.0729 1.80114 39.219C1.9444 39.3651 2.13924 39.4491 2.3438 39.4531H22.2969C22.3995 39.4532 22.5011 39.433 22.5959 39.3937C22.6907 39.3545 22.7768 39.2969 22.8494 39.2244C22.9219 39.1518 22.9795 39.0657 23.0187 38.9709C23.058 38.8761 23.0782 38.7745 23.0781 38.6719ZM36.7188 11.3281V12.8906H28.125V11.3281H36.7188ZM3.125 5.07812H28.125L28.1258 6.64062H3.125V5.07812ZM13.2812 37.8906V33.2031H17.9688V37.8906H13.2812Z" fill="#016B38" stroke="#016B38" stroke-width="0.5"/>
</svg>
