<svg width="61" height="43" viewBox="0 0 61 43" fill="none" xmlns="http://www.w3.org/2000/svg">
<path d="M60.017 35.4746C60.1429 35.381 60.253 35.2249 60.3002 35.0376C60.4104 34.8191 60.4261 34.6162 60.3632 34.4445C60.3632 33.8046 60.1743 33.2427 59.9855 32.5871C59.718 31.6038 59.482 30.6205 59.1987 29.6528C58.8998 28.6383 58.113 28.2949 57.2161 28.1544L54.2893 4.38344C54.2736 4.19614 54.2578 4.02446 54.2263 3.83716L54.2106 3.72791C53.8172 1.94859 52.2437 0.699951 50.4026 0.699951C48.5144 0.699951 46.9251 2.04224 46.5789 3.83716L37.2793 20.4441L35.5326 10.6891C35.3753 9.83064 34.6357 9.22193 33.7703 9.22193H23.2747C22.425 9.22193 21.6855 9.81503 21.5124 10.6423L19.986 18.0873H13.9279V17.0415C13.9279 16.2611 13.3457 15.6212 12.6061 15.4963C12.6061 14.1385 12.6061 12.7649 12.6061 11.407C12.6061 9.89307 11.2214 9.26875 10.1199 8.3947C9.12858 7.6143 7.72813 8.98781 8.71946 9.78382C9.34888 10.2833 9.99403 10.7983 10.6234 11.2978C10.6234 12.7025 10.6234 14.0916 10.6234 15.4963C9.86815 15.6212 9.30167 16.2611 9.30167 17.0415V18.0873H4.94296C3.47956 18.0873 2.28367 19.2735 2.28367 20.725V29.2314C2.28367 30.6829 3.47956 31.8692 4.94296 31.8692H8.42049C8.42049 32.3062 8.42049 32.7276 8.42049 33.1646H5.06884C2.59838 33.1334 0.599976 35.1312 0.599976 37.5661C0.599976 40.0165 2.59838 41.9988 5.06884 41.9988H38.1133C40.5837 41.9988 42.5821 40.0165 42.5821 37.5661C42.5821 35.1156 40.5837 33.1334 38.1133 33.1334H34.2109C34.2109 32.6964 34.2109 32.275 34.2109 31.8379H36.6027C37.4681 31.8379 38.2234 31.4321 38.7112 30.7922L40.1431 30.3708C41.0715 30.1054 41.8111 29.4343 42.1887 28.5446L49.6788 10.7203L52.7 27.6706C51.8975 27.6862 51.1894 27.9047 50.796 28.7007C50.0722 30.1679 49.5214 31.7443 48.8763 33.2427C48.121 35.022 47.1769 36.8325 46.5947 38.6743C46.5632 38.6743 46.5317 38.6743 46.516 38.6743C46.2799 38.6274 45.9338 38.6586 45.6977 38.6743C44.7536 38.7523 44.2343 39.3142 43.9039 40.1726C43.007 42.4982 45.7922 42.2953 47.1926 42.2953C49.3641 42.2953 51.5356 42.2953 53.6913 42.2953C54.368 42.2953 55.0289 42.3734 55.5639 41.8895C56.0674 41.4369 56.4293 40.7033 56.807 40.157C57.8927 38.5962 58.947 37.0354 60.017 35.4746ZM58.412 34.4289C58.412 34.4445 58.412 34.4601 58.412 34.4757C58.412 34.4757 58.412 34.4757 58.412 34.4913C58.412 34.5381 58.3962 34.5381 58.412 34.4289ZM50.4184 2.65095C51.2996 2.65095 52.0706 3.24406 52.2752 4.08689L52.2909 4.13371C52.3224 4.25858 52.3381 4.36784 52.3381 4.4927V4.50831V4.55513C52.3381 5.60087 51.4884 6.4437 50.4341 6.4437C50.3554 6.4437 50.2925 6.4437 50.2295 6.42809C49.2539 6.31884 48.5301 5.50722 48.5301 4.53952C48.4986 3.49378 49.3641 2.65095 50.4184 2.65095ZM35.7372 22.9414H30.9222L29.9151 11.1729H33.6287L35.7372 22.9414ZM23.4321 11.1573H27.9167L28.9238 22.9258H27.1929C27.1142 22.9258 27.0198 22.8945 26.9568 22.8477L21.89 18.6804L23.4321 11.1573ZM11.2843 17.4161H11.961V18.0717H11.2843V17.4161ZM34.3997 35.1C33.9276 35.8024 33.6444 36.6608 33.6444 37.5661C33.6444 38.4713 33.9276 39.3298 34.3997 40.0321H31.3785C31.7719 39.5795 32.0079 38.9864 32.0079 38.3309C32.0079 36.8949 30.8278 35.7087 29.3644 35.7087C27.9167 35.7087 26.7208 36.8793 26.7208 38.3309C26.7208 38.9708 26.9568 39.5639 27.3502 40.0321H23.5737C23.9671 39.5795 24.2031 38.9864 24.2031 38.3309C24.2031 36.8949 23.023 35.7087 21.5596 35.7087C20.1119 35.7087 18.916 36.8793 18.916 38.3309C18.916 38.9708 19.1521 39.5639 19.5454 40.0321H15.7689C16.1623 39.5795 16.3984 38.9864 16.3984 38.3309C16.3984 36.8949 15.2182 35.7087 13.7548 35.7087C12.3071 35.7087 11.1112 36.8793 11.1112 38.3309C11.1112 38.9708 11.3473 39.5639 11.7407 40.0321H8.7824C9.25447 39.3298 9.5377 38.4713 9.5377 37.5661C9.5377 36.6452 9.25447 35.8024 8.7824 35.1H34.3997ZM28.7192 38.3465C28.7192 37.9875 29.0182 37.6909 29.3801 37.6909C29.742 37.6909 30.041 37.9875 30.041 38.3465C30.041 38.7055 29.742 39.002 29.3801 39.002C29.0182 38.9864 28.7192 38.7055 28.7192 38.3465ZM20.9302 38.3465C20.9302 37.9875 21.2291 37.6909 21.591 37.6909C21.953 37.6909 22.2519 37.9875 22.2519 38.3465C22.2519 38.7055 21.953 39.002 21.591 39.002C21.2291 38.9864 20.9302 38.7055 20.9302 38.3465ZM13.1569 38.3465C13.1569 37.9875 13.4558 37.6909 13.8177 37.6909C14.1797 37.6909 14.4786 37.9875 14.4786 38.3465C14.4786 38.7055 14.1797 39.002 13.8177 39.002C13.4401 38.9864 13.1569 38.7055 13.1569 38.3465ZM2.58264 37.5661C2.58264 36.2082 3.69986 35.1 5.06884 35.1C6.43782 35.1 7.55504 36.2082 7.55504 37.5661C7.55504 38.924 6.43782 40.0321 5.06884 40.0321C3.69986 40.0478 2.58264 38.9396 2.58264 37.5661ZM40.5995 37.5661C40.5995 38.924 39.4822 40.0321 38.1133 40.0321C36.7443 40.0321 35.6271 38.924 35.6271 37.5661C35.6271 36.2082 36.7443 35.1 38.1133 35.1C39.4822 35.1 40.5995 36.2082 40.5995 37.5661ZM32.2282 33.1334H10.4032C10.4032 32.6964 10.4032 32.275 10.4032 31.8379H32.2282C32.2282 32.275 32.2282 32.712 32.2282 33.1334ZM37.2793 29.2158C37.2793 29.5748 36.9803 29.8713 36.6184 29.8713H4.94296C4.58104 29.8713 4.28207 29.5748 4.28207 29.2158V20.7094C4.28207 20.3504 4.58104 20.0539 4.94296 20.0539H9.30167V20.0851H13.9436V20.0539H20.3007C20.3794 20.0539 20.4738 20.0851 20.5368 20.1319L25.7137 24.3773C26.1386 24.7207 26.6736 24.908 27.2086 24.908H36.9174C37.1219 24.908 37.2793 25.0641 37.2793 25.267V29.2158ZM40.3634 27.8111C40.2218 28.1544 39.9386 28.4042 39.5924 28.4978L39.2777 28.5915V25.267C39.2777 24.3773 38.7741 23.5969 38.0188 23.2067L47.2241 6.75586C47.6017 7.28653 48.0895 7.72356 48.6875 8.0045L40.3634 27.8111ZM51.394 8.26984C51.4726 8.25423 51.5356 8.23862 51.6143 8.2074C51.6772 8.1918 51.7244 8.16058 51.7716 8.14497C51.8346 8.11376 51.9132 8.09815 51.9762 8.06693C52.0234 8.05133 52.0863 8.02011 52.1335 7.98889C52.1965 7.95768 52.2594 7.92646 52.3224 7.89524C52.3696 7.86403 52.4168 7.83281 52.464 7.8016C52.5269 7.77038 52.5899 7.72356 52.6371 7.69234C52.6528 7.67673 52.6685 7.66112 52.7 7.66112L55.2019 27.9515L54.9816 27.9359C54.903 27.9203 54.84 27.9203 54.7614 27.9047L51.2681 8.31666C51.3153 8.30105 51.3625 8.28545 51.394 8.26984ZM54.6197 39.8605C54.5568 39.9541 54.3994 40.1258 54.305 40.2663C53.8802 40.2194 52.9203 40.3287 52.7944 40.3287C51.8188 40.3287 50.859 40.3287 49.8834 40.3287C49.1753 40.3287 48.4829 40.3287 47.7748 40.3287C47.9794 40.1882 48.1682 39.9697 48.3256 39.6576C48.8763 38.5962 49.2697 37.41 49.726 36.3174C50.4813 34.5381 51.2209 32.7432 51.9762 30.9639C52.1493 30.5581 52.4168 30.1054 52.5584 29.6684C52.5899 29.6684 52.6371 29.6684 52.6685 29.684C52.8574 29.7777 53.2035 29.7621 53.471 29.7777L56.9014 30.1367C56.9958 30.1523 57.1059 30.1679 57.2161 30.1835C57.3262 30.7922 57.814 32.1189 57.877 32.3374C58.0028 32.8212 58.1445 33.3051 58.2704 33.8045C58.3176 33.9762 58.3805 34.1479 58.412 34.3196C58.412 34.3352 58.412 34.3508 58.412 34.3664C57.6567 35.459 56.9171 36.5672 56.1618 37.6597C55.6425 38.3777 55.139 39.1113 54.6197 39.8605Z" fill="#016B38"/>
</svg>
