<svg width="46" height="46" viewBox="0 0 46 46" fill="none" xmlns="http://www.w3.org/2000/svg">
<path d="M42.9219 29.7187C41.0469 27.8437 38.4688 26.8281 35.8125 26.9844C35.3438 26.9844 34.875 27.0625 34.3281 27.2188L28.7031 21.6719L43.9375 6.59375L45.6562 1.4375V1.35938C45.7344 1.04688 45.6562 0.8125 45.4219 0.578125L45.1094 0.265625L44.6406 0.34375L39.4062 2.0625L24.25 17.2188L18.7031 11.75C18.8594 11.2031 18.9375 10.7344 18.9375 10.1875C19.0938 7.53125 18.0781 4.95312 16.2031 3.07812C13.7031 0.578125 9.95312 -0.28125 6.59375 0.890625L6.125 1.04688L6.04688 1.90625L10.8906 6.75L6.82812 10.8125L2.29688 6.28125C2.0625 6.04688 1.82812 5.96875 1.51562 6.04688L1.04688 6.20312L0.890625 6.59375C-0.4375 10.5 0.890625 14.7188 4.09375 17.1406C5.73438 18.3125 7.6875 18.9375 9.64062 18.9375C10.3438 18.9375 11.0469 18.8594 11.75 18.7031L14.7188 21.6719L1.75 34.6406C0.8125 35.5 0.34375 36.75 0.34375 38C0.34375 39.25 0.8125 40.4219 1.75 41.3594L4.64062 44.25C5.5 45.1094 6.75 45.6562 8 45.6562C9.25 45.6562 10.4219 45.1875 11.3594 44.25L12.6094 43L23.3125 32.2969L24.25 31.3594L27.2188 34.4062C26.6719 36.9844 27.2188 39.7188 28.7813 41.9062C30.5781 44.3281 33.3906 45.6562 36.2812 45.6562C37.2969 45.6562 38.3125 45.5 39.3281 45.1875C39.6406 45.1094 39.7969 44.875 39.875 44.5625L39.9531 44.0938L35.1094 39.25L39.1719 35.1875L43.7031 39.7188C43.9375 39.9531 44.1719 40.0312 44.4844 39.9531L44.9531 39.7969L45.1094 39.4062C46.2812 35.9688 45.5 32.2969 42.9219 29.7187ZM40.2656 3.46875L43.7031 2.29688L42.5312 5.73437L27.6875 20.5781L25.4219 18.3125L40.2656 3.46875ZM5.03125 15.8906C2.60938 14.0938 1.51562 11.125 1.98437 8.3125L6.125 12.4531L6.35938 12.6875H7.0625L12.375 7.375C12.5312 7.21875 12.6094 6.98437 12.6094 6.75V6.35938L8.23438 1.98437C10.7344 1.51562 13.2344 2.29688 15.0312 4.17188C16.5938 5.73438 17.4531 7.92188 17.2969 10.1094C17.1406 12.375 16.125 14.3281 14.4062 15.7344C11.75 17.9219 7.84375 18 5.03125 15.8906ZM12.0625 41.3594L10.5781 39.875L20.1875 30.2656L21.6719 31.75L12.0625 41.3594ZM9.48438 38.7812L7.21875 36.5156L16.8281 26.9062L19.0938 29.1719L9.48438 38.7812ZM6.125 35.4219L4.64062 33.9375L14.25 24.3281L15.7344 25.8125L6.125 35.4219ZM8 44.0938C7.14062 44.0938 6.35937 43.7812 5.73437 43.1562L2.84375 40.2656C2.21875 39.6406 1.90625 38.8594 1.90625 38C1.90625 37.1406 2.21875 36.3594 2.84375 35.7344L3.54688 35.0312L5.57812 37.0625L10.9688 42.4531L10.2656 43.1562C9.64062 43.7812 8.85938 44.0938 8 44.0938ZM22.7656 30.6562L15.3438 23.2344L15.7344 22.8438L23.0781 30.2656L22.7656 30.6562ZM13.3906 18.2344C14.0938 17.9219 14.7969 17.5312 15.4219 16.9844C16.5938 16.0469 17.5312 14.7969 18.1562 13.3906L23.7031 18.8594L32.6094 27.6875C31.2031 28.3125 29.9531 29.25 28.9375 30.4219C28.3906 31.0469 28 31.8281 27.6875 32.6094L13.3906 18.2344ZM44.0156 37.6875L39.875 33.5469C39.5625 33.2344 39.0156 33.2344 38.7031 33.5469L33.5469 38.625C33.3906 38.7812 33.3125 39.0156 33.3125 39.25V39.6406L37.6875 44.0156C34.7969 44.4844 31.9062 43.3906 30.1094 40.9688C28.0781 38.2344 28.1562 34.25 30.2656 31.5156C31.6719 29.7188 33.7031 28.7031 35.8906 28.625C36.0469 28.625 36.2031 28.625 36.2812 28.625C38.3125 28.625 40.3438 29.4062 41.75 30.8906C43.625 32.6875 44.4062 35.1875 44.0156 37.6875Z" fill="#016B38" stroke="#016B38" stroke-width="0.5"/>
</svg>
