<svg width="50" height="50" viewBox="0 0 50 50" fill="none" xmlns="http://www.w3.org/2000/svg">
<path d="M47.6562 13.2812H9.375V9.375C9.375 9.1678 9.29269 8.96909 9.14618 8.82257C8.99966 8.67606 8.80095 8.59375 8.59375 8.59375H5.46875C4.43275 8.59375 3.43918 9.0053 2.70661 9.73786C1.97405 10.4704 1.5625 11.464 1.5625 12.5V42.1875C1.5625 43.2235 1.97405 44.2171 2.70661 44.9496C3.43918 45.6822 4.43275 46.0938 5.46875 46.0938H47.6562C47.8634 46.0938 48.0622 46.0114 48.2087 45.8649C48.3552 45.7184 48.4375 45.5197 48.4375 45.3125V14.0625C48.4375 13.8553 48.3552 13.6566 48.2087 13.5101C48.0622 13.3636 47.8634 13.2812 47.6562 13.2812ZM3.125 12.5C3.12685 11.879 3.37438 11.2839 3.81352 10.8448C4.25265 10.4056 4.84772 10.1581 5.46875 10.1562H7.8125V38.2812H5.46875C4.62342 38.2804 3.80076 38.5546 3.125 39.0625V12.5ZM43.75 44.5312H39.0625V41.4062H42.1875V39.8438H39.0625V38.2812H40.625V36.7188H39.0625V35.1562H40.625V33.5938H39.0625V32.0312H42.1875V30.4688H39.0625V28.9062H40.625V27.3438H39.0625V25.7812H40.625V24.2188H39.0625V22.6562H42.1875V21.0938H39.0625V17.9688H43.75V44.5312ZM46.875 44.5312H45.3125V17.1875C45.3125 16.9803 45.2302 16.7816 45.0837 16.6351C44.9372 16.4886 44.7384 16.4062 44.5312 16.4062H38.2812C38.0741 16.4062 37.8753 16.4886 37.7288 16.6351C37.5823 16.7816 37.5 16.9803 37.5 17.1875V44.5312H5.46875C4.84715 44.5312 4.25101 44.2843 3.81147 43.8448C3.37193 43.4052 3.125 42.8091 3.125 42.1875C3.125 41.5659 3.37193 40.9698 3.81147 40.5302C4.25101 40.0907 4.84715 39.8438 5.46875 39.8438H8.59375C8.80095 39.8438 8.99966 39.7614 9.14618 39.6149C9.29269 39.4684 9.375 39.2697 9.375 39.0625V14.8438H46.875V44.5312Z" fill="#016B38" stroke="#016B38" stroke-width="0.3"/>
<path d="M14.8438 11.7188H35.9375C36.0468 11.7188 36.1548 11.6959 36.2547 11.6516L43.2859 8.52656C43.4241 8.46522 43.5415 8.36511 43.6239 8.23837C43.7064 8.11162 43.7502 7.96368 43.7502 7.8125C43.7502 7.66132 43.7064 7.51338 43.6239 7.38663C43.5415 7.25989 43.4241 7.15978 43.2859 7.09844L36.2547 3.97344C36.1548 3.92911 36.0468 3.90622 35.9375 3.90625H14.8438C13.8077 3.90625 12.8142 4.3178 12.0816 5.05036C11.3491 5.78293 10.9375 6.7765 10.9375 7.8125C10.9375 8.8485 11.3491 9.84207 12.0816 10.5746C12.8142 11.3072 13.8077 11.7188 14.8438 11.7188ZM19.5313 8.59375H35.1563V10.1562H19.5313V8.59375ZM36.7188 5.88984L38.2813 6.58438V9.04062L36.7188 9.73516V5.88984ZM35.1563 7.03125H19.5313V5.46875H35.1563V7.03125ZM17.9688 10.1562H17.1875V5.46875H17.9688V10.1562ZM39.8438 8.34609V7.27891L41.0453 7.8125L39.8438 8.34609ZM14.8438 5.46875H15.625V10.1562H14.8438C14.2221 10.1562 13.626 9.90932 13.1865 9.46978C12.7469 9.03024 12.5 8.4341 12.5 7.8125C12.5 7.1909 12.7469 6.59476 13.1865 6.15522C13.626 5.71568 14.2221 5.46875 14.8438 5.46875ZM13.1703 32.0234L15.2656 32.3227C15.4073 32.7631 15.5844 33.1913 15.7953 33.6031L14.5266 35.2953C14.4138 35.4458 14.359 35.6319 14.3724 35.8194C14.3857 36.007 14.4663 36.1834 14.5992 36.3164L16.8086 38.5258C16.9416 38.6587 17.118 38.7393 17.3056 38.7526C17.4932 38.766 17.6792 38.7112 17.8297 38.5984L19.5219 37.3297C19.9337 37.5406 20.3619 37.7177 20.8023 37.8594L21.1016 39.9547C21.1283 40.1408 21.2212 40.311 21.3632 40.4341C21.5053 40.5573 21.687 40.625 21.875 40.625H25C25.188 40.625 25.3697 40.5573 25.5118 40.4341C25.6538 40.311 25.7467 40.1408 25.7734 39.9547L26.0727 37.8594C26.5131 37.7177 26.9413 37.5406 27.3531 37.3297L29.0453 38.5984C29.1958 38.7112 29.3819 38.766 29.5694 38.7526C29.757 38.7393 29.9334 38.6587 30.0664 38.5258L32.2758 36.3164C32.4088 36.1834 32.4893 36.007 32.5026 35.8194C32.516 35.6319 32.4612 35.4458 32.3484 35.2953L31.0797 33.6031C31.2906 33.1913 31.4677 32.7631 31.6094 32.3227L33.7047 32.0234C33.8908 31.9967 34.061 31.9038 34.1841 31.7618C34.3073 31.6197 34.375 31.438 34.375 31.25V28.125C34.375 27.937 34.3073 27.7553 34.1841 27.6132C34.061 27.4712 33.8908 27.3783 33.7047 27.3516L31.6094 27.0523C31.4677 26.6119 31.2906 26.1837 31.0797 25.7719L32.3484 24.0797C32.4612 23.9292 32.516 23.7431 32.5026 23.5556C32.4893 23.368 32.4088 23.1916 32.2758 23.0586L30.0664 20.8492C29.9334 20.7163 29.757 20.6357 29.5694 20.6224C29.3819 20.609 29.1958 20.6638 29.0453 20.7766L27.3531 22.0453C26.9413 21.8344 26.5131 21.6573 26.0727 21.5156L25.7734 19.4203C25.7467 19.2342 25.6538 19.064 25.5118 18.9409C25.3697 18.8177 25.188 18.75 25 18.75H21.875C21.687 18.75 21.5053 18.8177 21.3632 18.9409C21.2212 19.064 21.1283 19.2342 21.1016 19.4203L20.8023 21.5156C20.3619 21.6573 19.9337 21.8344 19.5219 22.0453L17.8297 20.7766C17.6792 20.6638 17.4932 20.609 17.3056 20.6224C17.118 20.6357 16.9416 20.7163 16.8086 20.8492L14.5992 23.0586C14.4663 23.1916 14.3857 23.368 14.3724 23.5556C14.359 23.7431 14.4138 23.9292 14.5266 24.0797L15.7953 25.7719C15.5844 26.1837 15.4073 26.6119 15.2656 27.0523L13.1703 27.3516C12.9842 27.3783 12.814 27.4712 12.6909 27.6132C12.5677 27.7553 12.5 27.937 12.5 28.125V31.25C12.5 31.438 12.5677 31.6197 12.6909 31.7618C12.814 31.9038 12.9842 31.9967 13.1703 32.0234ZM14.0625 28.8023L15.9867 28.5273C16.1399 28.5055 16.2832 28.4387 16.3983 28.3354C16.5135 28.232 16.5954 28.0968 16.6336 27.9469C16.7978 27.2999 17.0543 26.68 17.3953 26.1063C17.4743 25.9732 17.5121 25.8197 17.5037 25.6651C17.4954 25.5106 17.4413 25.362 17.3484 25.2383L16.1828 23.6836L17.4328 22.4336L18.9875 23.5992C19.1113 23.6921 19.2598 23.7462 19.4144 23.7545C19.5689 23.7629 19.7224 23.7251 19.8555 23.6461C20.4292 23.3051 21.0491 23.0485 21.6961 22.8844C21.846 22.8462 21.9812 22.7643 22.0846 22.6491C22.1879 22.5339 22.2547 22.3907 22.2766 22.2375L22.5523 20.3125H24.3227L24.5977 22.2367C24.6195 22.3899 24.6863 22.5332 24.7896 22.6483C24.893 22.7635 25.0282 22.8454 25.1781 22.8836C25.8251 23.0478 26.445 23.3043 27.0188 23.6453C27.1518 23.7243 27.3053 23.7621 27.4599 23.7537C27.6144 23.7454 27.763 23.6913 27.8867 23.5984L29.4414 22.4328L30.6914 23.6828L29.5258 25.2375C29.4329 25.3613 29.3788 25.5098 29.3705 25.6644C29.3621 25.8189 29.3999 25.9724 29.4789 26.1055C29.8199 26.6792 30.0765 27.2991 30.2406 27.9461C30.2788 28.096 30.3607 28.2312 30.4759 28.3346C30.5911 28.4379 30.7343 28.5047 30.8875 28.5266L32.8125 28.8023V30.5727L30.8883 30.8477C30.7351 30.8695 30.5918 30.9363 30.4767 31.0396C30.3615 31.143 30.2796 31.2782 30.2414 31.4281C30.0772 32.0751 29.8207 32.695 29.4797 33.2687C29.4007 33.4018 29.3629 33.5553 29.3713 33.7099C29.3796 33.8644 29.4337 34.013 29.5266 34.1367L30.6922 35.6914L29.4422 36.9414L27.8906 35.7766C27.7669 35.6837 27.6183 35.6296 27.4638 35.6213C27.3092 35.6129 27.1557 35.6507 27.0227 35.7297C26.4489 36.0707 25.829 36.3272 25.182 36.4914C25.0321 36.5296 24.8969 36.6115 24.7935 36.7267C24.6902 36.8418 24.6234 36.9851 24.6016 37.1383L24.3227 39.0625H22.5523L22.2773 37.1383C22.2555 36.9851 22.1887 36.8418 22.0854 36.7267C21.982 36.6115 21.8468 36.5296 21.6969 36.4914C21.0499 36.3272 20.43 36.0707 19.8563 35.7297C19.7232 35.6507 19.5697 35.6129 19.4151 35.6213C19.2606 35.6296 19.112 35.6837 18.9883 35.7766L17.4336 36.9422L16.1836 35.6922L17.3492 34.1375C17.4421 34.0137 17.4962 33.8652 17.5045 33.7106C17.5129 33.5561 17.4751 33.4026 17.3961 33.2695C17.0551 32.6958 16.7985 32.0759 16.6344 31.4289C16.5962 31.279 16.5143 31.1438 16.3991 31.0404C16.2839 30.9371 16.1407 30.8703 15.9875 30.8484L14.0625 30.5727V28.8023Z" fill="#016B38" stroke="#016B38" stroke-width="0.3"/>
<path d="M23.4375 34.375C24.3646 34.375 25.2709 34.1001 26.0417 33.585C26.8126 33.0699 27.4134 32.3379 27.7682 31.4813C28.123 30.6248 28.2158 29.6823 28.0349 28.773C27.8541 27.8637 27.4076 27.0285 26.7521 26.3729C26.0965 25.7174 25.2613 25.2709 24.352 25.0901C23.4427 24.9092 22.5002 25.002 21.6437 25.3568C20.7871 25.7116 20.0551 26.3124 19.54 27.0833C19.0249 27.8541 18.75 28.7604 18.75 29.6875C18.7512 30.9303 19.2455 32.1219 20.1243 33.0007C21.0031 33.8795 22.1947 34.3738 23.4375 34.375ZM23.4375 26.5625C24.0556 26.5625 24.6598 26.7458 25.1737 27.0892C25.6876 27.4325 26.0881 27.9206 26.3246 28.4916C26.5611 29.0626 26.623 29.691 26.5025 30.2972C26.3819 30.9034 26.0842 31.4602 25.6472 31.8972C25.2102 32.3343 24.6533 32.6319 24.0472 32.7525C23.441 32.873 22.8126 32.8112 22.2416 32.5746C21.6706 32.3381 21.1825 31.9376 20.8392 31.4237C20.4958 30.9098 20.3125 30.3056 20.3125 29.6875C20.3125 28.8587 20.6417 28.0638 21.2278 27.4778C21.8138 26.8917 22.6087 26.5625 23.4375 26.5625Z" fill="#016B38" stroke="#016B38" stroke-width="0.3"/>
</svg>
