<svg width="99" height="99" viewBox="0 0 99 99" fill="none" xmlns="http://www.w3.org/2000/svg">
<path d="M73.1739 34.9902C73.6648 35.5028 74.0497 36.1072 74.3065 36.7689C74.5632 37.4305 74.6868 38.1364 74.6701 38.8459C74.6534 39.5555 74.4968 40.2547 74.2092 40.9036C73.9216 41.5524 73.5087 42.1381 72.9942 42.627L46.625 67.7832C45.6192 68.7387 44.2838 69.2697 42.8965 69.2656C41.5118 69.2561 40.1812 68.7271 39.168 67.7832L26.0059 55.2051C24.9694 54.2162 24.3681 52.8561 24.3344 51.4239C24.3007 49.9918 24.8373 48.6049 25.8262 47.5684C26.8151 46.5318 28.1752 45.9306 29.6073 45.8969C31.0395 45.8632 32.4264 46.3998 33.4629 47.3887L42.8965 56.418L65.5371 34.8105C66.0497 34.3196 66.6541 33.9347 67.3158 33.6779C67.9774 33.4212 68.6833 33.2976 69.3928 33.3143C70.1023 33.331 70.8016 33.4876 71.4505 33.7752C72.0993 34.0628 72.685 34.4757 73.1739 34.9902ZM98.0156 49.5C98.0156 59.0955 95.1703 68.4755 89.8393 76.4538C84.5083 84.4322 76.9312 90.6506 68.0661 94.3226C59.2011 97.9946 49.4462 98.9554 40.0351 97.0834C30.624 95.2114 21.9793 90.5908 15.1943 83.8057C8.40926 77.0207 3.7886 68.376 1.91661 58.9649C0.0446248 49.5538 1.0054 39.7989 4.67743 30.9339C8.34946 22.0688 14.5678 14.4917 22.5462 9.16073C30.5245 3.82977 39.9045 0.984375 49.5 0.984375C62.3635 0.996269 74.6967 6.11154 83.7926 15.2074C92.8885 24.3033 98.0038 36.6365 98.0156 49.5ZM87.2344 49.5C87.2344 42.0368 85.0213 34.7413 80.875 28.5359C76.7287 22.3305 70.8354 17.494 63.9403 14.638C57.0453 11.782 49.4582 11.0347 42.1384 12.4907C34.8187 13.9467 28.095 17.5405 22.8178 22.8178C17.5405 28.095 13.9467 34.8186 12.4907 42.1384C11.0347 49.4581 11.782 57.0453 14.638 63.9403C17.494 70.8354 22.3305 76.7287 28.5359 80.875C34.7413 85.0213 42.0369 87.2344 49.5 87.2344C59.5042 87.2225 69.0951 83.2431 76.1691 76.1691C83.2431 69.0951 87.2225 59.5041 87.2344 49.5Z" fill="#016B38"/>
</svg>
